/* XPM */
static char *result[] = {
/* columns rows colors chars-per-pixel */
"64 64 208 2 ",
"   c #070605",
".  c #1A1209",
"X  c #131413",
"o  c #151A1B",
"O  c #1A1D1C",
"+  c #121718",
"@  c #110F0B",
"#  c #321E09",
"$  c #201F1D",
"%  c #241809",
"&  c #37230C",
"*  c #21201E",
"=  c #2A2317",
"-  c #191F20",
";  c #1C2324",
":  c #1E2728",
">  c #1F292A",
",  c #232423",
"<  c #2A2926",
"1  c #232B2C",
"2  c #2B2C2B",
"3  c #242725",
"4  c #33322E",
"5  c #3A3727",
"6  c #252F30",
"7  c #292F30",
"8  c #263133",
"9  c #2A3335",
"0  c #2C3739",
"q  c #2D3A3C",
"w  c #353532",
"e  c #383735",
"r  c #3A3936",
"t  c #333C3D",
"y  c #3E3D3A",
"u  c #343837",
"i  c #312E2B",
"p  c #421C04",
"a  c #503512",
"s  c #463D27",
"d  c #413F3C",
"f  c #443E36",
"g  c #6C420B",
"h  c #6E4D18",
"j  c #41403D",
"k  c #494638",
"l  c #574F3A",
"z  c #685F38",
"x  c #2F3E40",
"c  c #323F40",
"v  c #344244",
"b  c #3B4445",
"n  c #364649",
"m  c #3A4749",
"M  c #37494B",
"N  c #3B4A4C",
"B  c #3D4E51",
"V  c #3E5254",
"C  c #2F4042",
"Z  c #444342",
"A  c #4A4846",
"S  c #414748",
"D  c #434B4B",
"F  c #4C4A49",
"G  c #514D4A",
"H  c #55514F",
"J  c #424F51",
"K  c #425255",
"L  c #495253",
"P  c #435659",
"I  c #495659",
"U  c #455A5D",
"Y  c #4B5A5D",
"T  c #555654",
"R  c #525B5C",
"E  c #5A5A59",
"W  c #4D504F",
"Q  c #7C7851",
"!  c #6D6952",
"~  c #465D61",
"^  c #4B5E61",
"/  c #525F61",
"(  c #4C6265",
")  c #4D6669",
"_  c #4F696D",
"`  c #466165",
"'  c #526265",
"]  c #5A6364",
"[  c #536669",
"{  c #536A6D",
"}  c #5B6A6D",
"|  c #5B6768",
" . c #546E72",
".. c #5B6E71",
"X. c #567175",
"o. c #5B7275",
"O. c #5B767A",
"+. c #5D797D",
"@. c #567479",
"#. c #4E6E73",
"$. c #636B6C",
"%. c #696967",
"&. c #666F70",
"*. c #627375",
"=. c #6C7474",
"-. c #637679",
";. c #6A7679",
":. c #637A7D",
">. c #6A7A7D",
",. c #737C7D",
"<. c #717271",
"1. c #6E706F",
"2. c #865B28",
"3. c #8F692D",
"4. c #A36F31",
"5. c #9E6719",
"6. c #BB8F38",
"7. c #C88B2F",
"8. c #CEAC4C",
"9. c #D5B34B",
"0. c #F0D157",
"q. c #5E7C81",
"w. c #637D81",
"e. c #6A7E81",
"r. c #707F81",
"t. c #658185",
"y. c #6B8285",
"u. c #668589",
"i. c #6C868A",
"p. c #6C898D",
"a. c #738285",
"s. c #7B8384",
"d. c #728689",
"f. c #738A8D",
"g. c #7C8B8D",
"h. c #788688",
"j. c #6D8D91",
"k. c #748E91",
"l. c #7B8E91",
"z. c #6F9296",
"x. c #759195",
"c. c #7C9295",
"v. c #76959A",
"b. c #7C9699",
"n. c #7C999D",
"m. c #77989C",
"M. c #7E9DA1",
"N. c #828B8D",
"B. c #898D8C",
"V. c #818F91",
"C. c #849394",
"Z. c #8A9596",
"A. c #839699",
"S. c #84999C",
"D. c #8A9A9C",
"F. c #899698",
"G. c #929C9D",
"H. c #969796",
"J. c #839EA2",
"K. c #8B9EA1",
"L. c #939FA0",
"P. c #85A2A5",
"I. c #8CA2A4",
"U. c #86A4A8",
"Y. c #8AA6AA",
"T. c #8DA9AD",
"R. c #93A3A5",
"E. c #9AA4A5",
"W. c #94A6A9",
"Q. c #9BA7A9",
"!. c #94AAAC",
"~. c #9CAAAC",
"^. c #92AEB1",
"/. c #9DAEB0",
"(. c #95B2B5",
"). c #9BB2B5",
"_. c #9CB5B9",
"`. c #9EB8BB",
"'. c #A2ACAE",
"]. c #A1AFB1",
"[. c #A4B2B4",
"{. c #AAB4B5",
"}. c #A4B6B9",
"|. c #AAB7B9",
" X c #A4BABD",
".X c #ACB9BB",
"XX c #B2BCBD",
"oX c #B8BBBB",
"OX c #A6BEC1",
"+X c #ABBEC0",
"@X c #B4BFC0",
"#X c #ABC2C4",
"$X c #AFC7CA",
"%X c #B4C2C4",
"&X c #BAC3C5",
"*X c #B2C6C9",
"=X c #BBC7C8",
"-X c #B5CACC",
";X c #BCC9CB",
":X c #BCCED1",
">X c #BFD0D2",
",X c #C3CCCD",
"<X c #C2CFD1",
"1X c #C4D2D4",
"2X c #C8D4D5",
"3X c #CAD8DA",
"4X c #D2DEDF",
"5X c #D2DEE0",
/* pixels */
"E.,X&X&X%X&XXXXX.X{.'.'.{.{.'.'.[.E.'.Q.Q.Q.E.E.Q.Q.E.E.E.E.E.G.D.E.R.D.G.D.E.G.L.D.L.D.G.L.R.G.G.G.G.G.Q.Q.D.Z.Q.'.Q.G.E.E.~.&.",
"].!.J.T.^.}.}. X'.P.T.n.I.T.p.;.f.:.i.l.c.f.w.w.a.i.:.t.j.b.p.-...i.x.:.t.y.u.-.>.p.x.:.o.f.x.y.o.+.u.i.p.p.t...;.f.n.k.x.+.x.Y ",
"~.k.t.j.m.T.T.&XH.( z.m.m.b.+.G.E v X.X.v.i.t.G.%.v @.y.i.t.#.H.k B t.) X.t.) s.%.v @.` ) q.@.B.E v X.+.+.@.) s.%.q t.+.#.V X.M ",
".XP.@.+.m.!._.F.F { P.J.!.Y.x.R 2 U +.j.b.j.x.' u / t.p.i.@._ L ; U @._ o.o._ K 7 v ) U _ t.u.R 3 U +.+.p.t._ K 1 m u.@._ ~ X.U ",
".XP.) +.m._.*X}.Y.M.Y.(.).^.Y.m.j.p.+.j.f.x.m.t.+.p.@.c.i.O.:.w. .X.X. .O.X. .~ ` ( _ U _ +.i.+._ t.O.t.k.u.+. .) @.O.X.X.+.+.P ",
"[.).j.m.(.b.;.*.| I K K L B N L L n x N v v m v q q t N m v v v v 0 x 0 0 q 0 8 8 6 8 8 0 c b m c m v m m m m v v 8 >.+. .+.X.V ",
"].!.U.x.(.b.N v 0 1 1 3 ; ; 3 ; - - + - + + - + o - - - ; - - O o ; - + + o + + + o o - - - ; ; ; ; ; ; ; ; - - + 3 D.:.` _ _ x ",
".X!.oXR n.m.Y / K N m t t q t t 8 6 : > > : : ; : 6 6 7 7 6 1 1 1 1 > ; : : ; ; ; ; ; 8 1 7 0 7 1 6 1 1 1 ; ; ; ; 8 R.X.a.$.V n ",
".X`.$.Y `.S./ [ ' / Y L J m m b q u q u 1 8 8 1 8 0 0 u 0 8 1 8 1 8 8 1 1 6 : : : ; : 8 9 7 9 9 0 8 6 1 8 > 1 3 ; 8 E.+.] e n V ",
".XOXY.(.-Xx.Y *.} -.i.>.*.} Y L m N N N 0 q n 0 t m c m m c q t q c t q q q 8 0 8 6 q C v c q v v v q q q q 0 9 0 0 R.u.U V ` N ",
".X%XOXOX$Xb.Y *.{ i.K.S.c.a.>.) V K K K q N P m K K K K Y K N m v v m V v x 8 x v v M V B N K K V I m n v v q q v v E.J.z.p._ n ",
".XOX#X>X-XP.' ..o.y.n.n.x.f.y.o.Y { { ) M U U V P Y ' ' ' [ ' I P K m V I n x C M M U V P U [ ) U I V K B B B N n m W.U.+.+.O.U ",
"XX X#X-X$Xx.~ ' e.x.x.m.K.n.l.O.{ { o.} ~ Y N M U P ~ } ' ( ' [ *.{ K m V n n v B P U B U ) ( { ~ ( I U / ' / Y Y N ~.Y.@.+.u.) ",
".X*XOX-X:Xk.N Y >.S.m.J.U.K.R.y.( ) o.) Y  .V V U ~ P { [ ( ~ } ....^ P P N n V ~ ~ [ V ) -.U K (  .~ U ( ] Y I Y L ~.U.+.#.p.V ",
".X-X X-X1Xb.N [ -.b.U.T.b.b.b.y.U V } { U ` N U ( { Y [ ) } ( *.>.e.} ( ~ m n U U (  .) { ) P V / X.{ / P [ ' I ' Y |.Y.#.@.j.V ",
".X#X,XZ.$XI.I ' o.t.T.).P.Y.I.w.n V o.{ V ( [ K V P ) U [ w.;.:.a.>.-.o.{ ) ~ ) U ( ( { { [ ( _ { { o.X.( / [ ' ] I /.n.l.-.@.V ",
"XX=XB.R *X!.Y ' o.b.!.).#X.XI._ v M V U ~ o.o.~ B U  .{ { a.g.a.e.y.g.d.y.i. .) ~ U ( P X.>.i.y.:.-.w.>.} { [ } [ R ].p.s.H B K ",
"XX>XR.}.3XW./ *.a.!.T.@X=X`.x.U M M M U  .-...U V U ` { ` :.c.c.:.d.D.l.c.F.w.) V ( :.-.f.c.A.A.f.w.e.w.*.*.&.} | Y {.OX@.N t.U ",
"&X2X1X2X4X~.} >.d.W.P. X%X Xx.V V N U [  .-.o.{ U ( ~ o.-.:.f.f.o.i.y.d.D.D.A.g.:.@.i.f.D.A.b.c.b.g.g.o.{ -.>.*...Y {.#X(.v.p.( ",
"&X2X1X3X4X[.} a.g.W.).(.;X%Xx. ._ ~ )  .o.d.e. .)  ...k.c.f.S.c.o.i.f.b.S.D.S.S.b.c.p.c.I.D.S.g.c.b.f. .>.y.r.*.} L [.=X_.v.j.) ",
"@X>X-X1X4X].} a.F.[. X}.=X;X!.b.b.d.w.w.o.e.:.( ~ [ o.k.c.c.S.c.i.y.l.I.W.D.D.b.l.A.I.I.I.Q.K.b.D.F.l.y.g.l.d.r.;.Y Q. X X).T.{ ",
"oX1X;X<X4X{.&.,.F.{.%X%X*X%X).I.R.L.f. .o.w. ._  .o.-.A.S.+.e.D.b.D.S.Q.W.K.I.K.c.S.I.W.~.~.W.K.I.D.D.l.g.C.g.a.h.} {.(.!.(. Xa.",
"&X3X}.}.4X[.} ..V..X;X,X*X[.).~.D.A.l.o.-.w.+.-.y.w.c.].S.i.k.c.g.b.b.Q.D.W./.!.I.Q.Q.!.~.~.I.R.R.Q.L.F.C.l.V.a.>.} XX}.J.}.*Xg.",
"&X=XoX%.=X~.] =.V.|.;X,X*X.X[.S.k.k.A.c.i.y.i.f.:.O.k.A.A.R.A.i.y.p.b.!.!.~.[.[.[./.~.Q.!.Q.I.Q.!.Q.Q.D.l.a.>.&.[ R .X X{.B.R.N.",
"oX,X<.T =XG.] s.e.A.@X1X;X&X!.A.l.i.A.D.f.w.y.c.f.p.S.l.J.D.c.R.b.c.k.{././.~.~./.].[.].{.~.~.[.'.].'.D.V.d.o.{ [ J Q.T.;.G d.a.",
"XX3X+X%X2XV.R ;.h.R.I.%X,X&XI.b.K.k.I./.W.].[.I.K.W.K.].~.~.c.!.I.I.R. X[./.{.).].}..X}.|.}.}.}.).].~.Q.E.D.d...~ I ].U.X.e. Xr.",
"XX>X;X1X1XZ.L &.r.D.[.XX%XXX).A.,...&.s.s.h.s.;.[ $.-.Q.%X[.b.K.S.W.Q.~.[.{.{.}.[.[.@X{.[..X.X{.[.'.~.Q.E.Z.a.} Y L '._.M.^.P.[ ",
".X;X.X=X2XV.D &.,.Z.|.&X%X).[.$.d j b k A A G Z Z , ; h.|.S.K.S.K..X!.W.~.[.[.).[.[. X].|.|.|.|.{.[.'.'.Q.D.Z.r.[ D R.Y.t.T.x.V ",
"{.%X}.=X,Xh.b $.r.,.h.F.D.b./.=.j T 2 4 r d w j w X ; $.}./.~.~.I.~.R.S..X/.I.I.I.W. X[.|..X@X@X.X{.[.Q.Q.L.G.y.' J I.M.q.j.u.M ",
".X%X+X;X;Xa.D ;.Q h h h s L !.,.j d O 4 r y 4 w , X ; *.[.|.Q.W.A./.}.K.}..XW.[.~.W..X%X%X XXX%XXXXX.X[.~.Z.Z.d.o.L D.m.p.q.#.B ",
"oX,X.X=X,Xa.A ,.l 3.0.2.. * g.=.A * * 4 w r w , 2 O O V.%X{..X|.S.|.).~.F.].}.XX[.!.).~.D./.XX%X@X.X'.'.'.Z.F.V.e.I L.M.q.@.+.M ",
"oX;XoX<.}.;.b =.P z 0.a   3 K.=.j 3 < 4 2 r d y w O 2 G.<X%X&X&X!.].S.!.S.I.[.*X&X.X/.l.i.I..X.XXX/.E.{.[.E.L.F.h.I W.p.d.&.#.U ",
"oX@X1.d I.&.t ] / Q 9.# ; ; / | e $ 2 s f d Z f < $ 2 Z.;X@X.X=X{.{.W.{.I.c.).%X%X XI.b.b.D..X~.[.XX].].].E.Z.>.>.Y R.t.,.k { *.",
".X*Xa.y.v.' t T I Q 9.# / 9 y R e O < 2.2.4.2.= w , 1 V.%X]./.].[.[.I.)..X~.).W.W.!.C.l.I.[.|.[.[.}.~.E.D.A.-.} r.I W.`.>.^ x.) ",
"{.W.K.J._ v 0 I I Q 8.# e.S Z / w O < 2.p h 4.$ y < 3 l.@X~.R.W.W.D.S.R..XXXQ.i.>.S.f.f.b.[.[.]./.Q.~.E.V.-.-.} *.I R._.(.#XT.} ",
"L. .j.J.X.x 6 F I ! 9.# r.W c W w $ , 7.g 2.7.< r * 1 h.}.K.W.[.b.K.K.K.[.~.l.[ e.x.f.u.i.R.).I.y.R.~.Q.D...} { } ' ].!.Y.#XT.o.",
"Z.{ -.O._ N 1 b K ! 7.# r.D c ] A i 4 6.5.2.4.i e O 2 r.A.c.Q.[.!.~.b.f.S.y.o.} -.i.y.>.y.f.S.W.L.W.Q.F.F.a.o.} o./ ].#X_.[.T.o.",
"C.o._ ~ ~ n : t c l 4.. *.S c ] G d c 4.4.4.2.i r , 1 -.p.A.W.J.S.S.D.e.i.o.*.w.-.u.t.o.:.p.>.f.~.Q.R.D.A.f.;.' ] ' {._._.Y.U.) ",
"N.O.V V V v ; 0 x s g . R c c T Z y d f f f i 2 r 3 3 *.S.J.k.y.i.o.o.X.{ ..o.o.:.o.t.u.u.b.y.w.I.D.D.c.h.a.C.-.[ P ].*Xv.z.z.{ ",
"V.O.H.t x c 1 0 5 a %   = - b I Z e d Z c y r e d 3 2 h.K.c.w...-.[ Y { { O.) { +.o.y.i.t.f.k.p.b.I.I.g.g.c.D.g.y./ [.#XI.;.O.X.",
"C...L ; n v : 8 5 &     .   0 L d , r d y r e e d , 2 h.K.k.w.w.:.U P { )  .{ ` { o.w.w.w.p.R.R.J.K.g.c.A.F.Z.V.y.*.{. XE.G [ a.",
"C.O.B B V x > 8 9 - @     + c J r T r e w e e T F O 2 h.W.f.w.e.u.-.Y ) ) { { {  . .i.w.k.I.W.~.'.A.l.c.A.F.C.d.h.=. X#Xl.' q.O.",
"N.w._ U V 0 > 9 c c c M ; o c T A H i e e d r H e o 2 e.K.l.x.f.t.t._ X. .{ O.X.{ ) X.q.+.k.I.K.I.J.k.k.F.A.C.d.c.;.@X#X(.*X(.o.",
"N.:.` U U x ; 9 q n ~ [ ^ 9 c L < X O * $ * * O X X 3 ;.A.f.k.k.-.o.t.+.{ ) O.o.{  .@.i.` O.S.I.A.b.k.d.A.V.l.h.l.;.&X;X_.#X-X-.",
"C.O.) ~ V q ; 8 0 N K ( e...>.[ - - 3 * - - - - - - u e.A.p.e.:.t.f.i.o. .) X.+.X.X.X.@.) o.k.S.b.c.k.d.y.d.l.g.g.;.&X1X.X-X:Xe.",
"F.q.) { U q - 8 0 B / e.l.e.l.d.*...;.>.>.=.;.*.} { r.l.c.k.y.f.f.k.f.w.o.K { o.+.+. .) t.) +.S.K.c.k.f.g.f.d.d.e.} &X:XOX+XOX>.",
"F.i.` _ ~ q - 6 c L ..e.-.o.:.d.f.k.K.R.J.A.D.A.l.k.K.c.i.l.+.p.f.i.j.u.q.~ ` +.X.X.O.u.+.i.x.b.b.k.i.k.g.y.e.>.o./ XX*X X_.).-.",
"l.-.N.n ~ v ; 6 c J / *... .O.e.d.e.d.l.l.l.f.l.l.k.l.S.y.y.y. .y.f.w.w.O.U P X.( { +.:. .t.i.u.i.f.w.o.:.>.o.o.} I .X X[.d.j.{ ",
"C.:.] < V K 1 6 t J Y } *.>.>.:.e.:.e.y.d.f.y.f.d.y.c.l.e. .i. .[ p._ ( ) )  .( X. .^ K ~ ) o.:.+.y.w.o. .....[ ..Y }.Y.G.E Y { ",
"Z.i.V I  .K 8 0 t D K ' o.;.>.:.:.*.w.o.w.a.y.e.y.w.l.l.y.( ( q. ... .P K ( ( )  ._ ) ~ ~ ) o.O.:.O.y.-. .} | ' } L Q.Y.' v w.( ",
"c.:.X.O.O.N 1 7 0 v K ' } { ;.-.{ [ ..[ o.-.-.e.e.e.w.e.O.[ K  . .{  .~ U ( { ( ( ^ P K ^ ) ( w.:.{ [ } ^ / ' / ' N L.k.@.t.p.P ",
"F.i.@.t.t.V ; 8 8 0 D I R ( } { P U ~ ^ [ o...o.O...w.[ [  .B ^ [ ^ ^ ~ K ) ( ~ U P K ~ { ^ ^ ..' P V V V J U Y P b K.w.X.+.q.V ",
"F.j.u.t.q.V ; 1 6 6 m I B K Y P M B U ^ ^  .[ ' { [ ..U U K v U ~ K V B B ~ K K M v K ^ ( [ U Y P M N v N N B L N C D.i.+.t.t.B ",
"V.y.p.:.+.K ; ; ; 6 q N K K K B B B Y ^ [ ' ' [ Y Y / U N B N B K B K K m P K m c v B B m U B N N M n v n N m m m u Z.p.` _ +.N ",
"V.u.+.f.S.( 1 3 3 1 q m K N N m J Y ' [ } | ~ I P K J B n n m N v K B B n n B N v q B J v J B m v v n v v v N c C 0 g.p.` U #.M ",
"D.f.E.T x.} 1 1 > 1 q b K N n m B Y ' / / / K N P N B Y K m n N x m B B B x v x 0 0 N m b B B m b n m b c v m b c 9 C.w.e.] V v ",
"D.f.] w t.' ; - ; 1 q c N m q v N J ^ I J K N n B v m J m x 0 x q 0 v M v c x 0 t c x c c v b c t v v t q q c q u 8 C.:.$.k q M ",
"Q.U.+.i.b.( S S m D D J L L L I E / $.| ] ' R / / R R / Y L L L L J L L J L D J L J D D D S D S m D A m m Z m Z b b V.+.M 8 ) M ",
"~.Y.J.^.Y.~.+X}.[.[.'..X[.[.@X@X;X;X;X=X,X%X@X|..X.X.X%X.X].].}.|.|.|.].].].~.].].].~.].Q././.~.Q.Q.'.'.'.~.'.~.~.Q.L.{ _ ) X.M ",
"Q.Y.T.!.U.m.p.t.w.+.+.i.b.n.n.n.Y.^.^.J.M.v.j.u.@.i.q.j.k.w.e.e.i.k.w.q.w.q.w.w.@.e.w.q.w.O.o. .( O.u.t.+.:.u.+.O.+.{ N U ~ ( v ",
"~.Y.n.^.P.j.#.F.=.M @.t.p.x.x.'.$.:.U.n.t.j.j.K.%.B #.@.w.w.@.G.T ^ ) )  .O.O.V.%.V q. .+. .B s.T P +. .{ +.+.g.&.n ) M V ` ) C ",
"~.J.j.U.P.p.t.[ 4 v +.x.i.p.p.| w [ m.J.v.w.u.| e v _ w.b.f.X./ 2 ~ @.)  .w. ./ w M o._ X.` ~ D < K +.X.@.:.t.$.e q ` M B V #.v ",
"}.(.P.^.T.m.p.O.` X.t.n.p.+.t.@. .v.v.v.v.u.u._ ~ X.O.k.J.p.q.~ ~  .o.q.q... . .~ [ @.) _ _ ) M B X.q. .@.t.i.{ V @._ B V V _ n ",
"r.&.( { ..) U ( P n B P U K N Y U P U V V B B N B N n P ^ B N M m v N n m B c B B q v x x v q q x v v q n N M q N J C 0 0 0 x 8 "
};
