/* XPM */
static char *ec07d5067d5e4607ea90f57b548a17e1p3WoU85SSP5pR4Z8[] = {
/* columns rows colors chars-per-pixel */
"64 64 224 2 ",
"   c #35322F",
".  c #3B342D",
"X  c #3D3327",
"o  c #323434",
"O  c #393532",
"+  c #333638",
"@  c #37393A",
"#  c #3B3B3C",
"$  c #3D3933",
"%  c #2F3336",
"&  c #44382B",
"*  c #4A3D2D",
"=  c #553E24",
"-  c #4A3E35",
";  c #423E3C",
":  c #443B34",
">  c #563D1F",
",  c #5D4124",
"<  c #5C432A",
"1  c #53402C",
"2  c #44413D",
"3  c #4A423C",
"4  c #4A4035",
"5  c #554433",
"6  c #5A4533",
"7  c #53463D",
"8  c #59493B",
"9  c #66482E",
"0  c #6E4A2A",
"q  c #664628",
"w  c #754D2A",
"e  c #7B4F2B",
"r  c #744B27",
"t  c #7C512C",
"y  c #634A33",
"u  c #6C4D34",
"i  c #674E3B",
"p  c #744F34",
"a  c #6A503C",
"s  c #755136",
"d  c #74533B",
"f  c #7A553C",
"g  c #7D5436",
"h  c #3B3F41",
"j  c #3E4244",
"k  c #3F4548",
"l  c #424445",
"z  c #4D4641",
"x  c #424649",
"c  c #45494B",
"v  c #4B4C4D",
"b  c #4E4844",
"n  c #554941",
"m  c #5A4C43",
"M  c #524E4B",
"N  c #524740",
"B  c #59524D",
"V  c #4D4F50",
"C  c #474C50",
"Z  c #4E5152",
"A  c #535353",
"S  c #5B5A59",
"D  c #585757",
"F  c #68564A",
"G  c #725642",
"H  c #7D5A43",
"J  c #745C4C",
"K  c #7A5D4B",
"L  c #785844",
"P  c #6C5C53",
"I  c #655851",
"U  c #735E52",
"Y  c #614F44",
"T  c #7E614E",
"R  c #73665E",
"E  c #7C665A",
"W  c #7D695D",
"Q  c #786254",
"!  c #68605B",
"~  c #7A6B62",
"^  c #6C6663",
"/  c #85552D",
"(  c #89562E",
")  c #8A582F",
"_  c #825535",
"`  c #8E5A33",
"'  c #845A3B",
"]  c #8B5C3C",
"[  c #865735",
"{  c #925C34",
"}  c #995F36",
"|  c #935E3B",
" . c #9B6037",
".. c #96613C",
"X. c #9D623B",
"o. c #966036",
"O. c #A2653D",
"+. c #A6683E",
"@. c #AB6A3E",
"#. c #A8673E",
"$. c #B16D3F",
"%. c #835D43",
"&. c #8A5E43",
"*. c #8C6146",
"=. c #82624D",
"-. c #8A644A",
";. c #9B6441",
":. c #966748",
">. c #8B6A54",
",. c #866855",
"<. c #926C54",
"1. c #9C7259",
"2. c #8E705E",
"3. c #A26741",
"4. c #A56943",
"5. c #AB6C41",
"6. c #A66E4A",
"7. c #B26E43",
"8. c #AB704A",
"9. c #B57245",
"0. c #BA7446",
"q. c #BC7649",
"w. c #BE7849",
"e. c #B97549",
"r. c #B67A55",
"t. c #AA7555",
"y. c #816F63",
"u. c #8B756A",
"i. c #867267",
"p. c #9D7B66",
"a. c #A27D66",
"s. c #B07F61",
"d. c #C17749",
"f. c #C47B4B",
"g. c #CB7E4E",
"h. c #C37644",
"j. c #CB7F51",
"k. c #B8815E",
"l. c #9E8171",
"z. c #A9846E",
"x. c #BA896B",
"c. c #B88566",
"v. c #AA8978",
"b. c #A68673",
"n. c #B99078",
"m. c #B98E73",
"M. c #CD814F",
"N. c #D3824F",
"B. c #CE8151",
"V. c #C7845B",
"C. c #D48351",
"Z. c #DA8653",
"A. c #DE8954",
"S. c #D98B5B",
"D. c #E38B56",
"F. c #E58D59",
"G. c #E98E59",
"H. c #E6915D",
"J. c #EC925C",
"K. c #F2955D",
"L. c #F6985E",
"P. c #FB9C5E",
"I. c #FCA25E",
"U. c #C98B65",
"Y. c #DC9464",
"T. c #CC9674",
"R. c #CB997C",
"E. c #CA9879",
"W. c #D69D79",
"Q. c #D79C78",
"!. c #D39067",
"~. c #ED9661",
"^. c #EC9B6A",
"/. c #E79767",
"(. c #F09760",
"). c #F39A64",
"_. c #FB9D63",
"`. c #F49E6A",
"'. c #F99F69",
"]. c #E79C72",
"[. c #FCA263",
"{. c #F6A16D",
"}. c #FBA26D",
"|. c #FCAA6C",
" X c #EBA276",
".X c #F4A473",
"XX c #FBA572",
"oX c #FDA975",
"OX c #F3AA7D",
"+X c #FCAD7C",
"@X c #FDB07F",
"#X c #EEA06E",
"$X c #D6A07F",
"%X c #B89380",
"&X c #CA9D85",
"*X c #C79B84",
"=X c #D2A991",
"-X c #D0A891",
";X c #EBAB85",
":X c #F3AE84",
">X c #F9AE80",
",X c #F2AF89",
"<X c #FCB182",
"1X c #F2B18B",
"2X c #FCB58B",
"3X c #FFB98D",
"4X c #F6B085",
"5X c #FBB791",
"6X c #FDBA94",
"7X c #FCBD9A",
"8X c #F3B897",
"9X c #EFB08A",
"0X c #F9BFA1",
"qX c #FEC19E",
"wX c #FCC3A3",
"eX c #FCC7A9",
"rX c #FDCAAC",
"tX c #F8C5A5",
"yX c #FCCEB3",
"uX c #FED1B6",
"iX c #FDD4BB",
"pX c #FCD9C5",
"aX c #FBD9C6",
"sX c #FBE1D3",
/* pixels */
"v n.rXwX7X5X5X6X<X/.+.y k v.wX6X2X<XoXXXXXXXXXXXXXXXXX}.D.@.u j u.@X3X5X5X2X<X<X<X<X2X5X3XoXJ.0.] i.tXtX7X7X6X6X6X6X7XOXj.[ O # ",
"v n.wX5X<X<X<X<XXXC.O.y x v.wX5X+XoX}.K.).)._._._._._._.Z.@.u k 2.oX<X<X2X<X@X4X>X>X>X<X2XoXD.0.] ~ 5X5X<X2X3X<X<X4X2X.Xd.[   # ",
"v n.7X<XoXoXoXoX(.g. .6 l v.wX5XoXXX_.L.K.K.L.P.P.P.P.L.Z.@.u k >.{.@XXXoXoXXXoXoXoXoXXXoX}.A.q.*.y.:X<X>X>X<X<X>X>X<X`.9.p O # ",
"v m.2X+X}._._._.J.f.` 6 x v.wX5XXX_._._.L.L.K.K.K.L.P.L.Z.@.u k ,.~.|.'._.[._._._._._._.'.K.C.7.' y.OX@XoXoXoXoXoXoXoX~.@.r   # ",
"v c.@X{.L.L.L.K.D.w.` 6 x v.wX5X}.I.I.I._.P.K.K.K.K.L.L.Z.@.u x =.~.'.L.L._.K.L.L.L.L.L.L.G.g.@.f y.OXoX[.[._._._._._.D.#.0   # ",
"v c.oX`.J.F.G.D.C.9.[ < x v.wX6X}.I.I.I._.'._.L.K.K.K.K.Z.#.u l E G._.G.G.G.G.G.G.G.G.G.G.Z.g.$.' y.OX{.).L.L.L.L.L.K.Z.#.0   # ",
"c c.|.(.D.A.D.A.g.7./ 5 x v.qX5X}.[._.I.[.XX}._.K.J.K.G.g.O.u j =.G.K.D.D.G.D.D.D.D.D.D.D.g.d.@.f W .X[.G.G.K.G.G.J.G.g.O.q   # ",
"v c.XX~.Z.Z.C.N.f.+./ 5 x z.qX5X|.P.P.I.[.XX}._.K.K.K.G.g.@.p l E D.G.Z.Z.g.Z.Z.C.Z.C.Z.N.g.9.O.g E {.J.D.D.D.D.D.G.D.g.} q   # ",
"v c.XXH.C.j.g.g.d.O.t 5 l z.6X2X|.I.I.I.}.XX'.L.J.K.K.G.M.@.u l T C.D.C.B.g.g.j.g.j.g.g.g.d.5. .g E ).G.Z.Z.Z.Z.Z.Z.C.d.} q   # ",
"v x.oXH.g.f.f.f.0.X.e 5 c z.2X@X}.[._.'.XX}._.L.K.K.G.D.M.@.f l T C.C.g.f.f.f.f.f.f.f.g.f.9.+.} s E J.Z.g.g.g.g.g.g.g.9.} q   # ",
"v x.@XF.d.0.0.0.7...r * v z.@X@XoX'.'.'.'._.L.K.J.G.D.D.M.9.f x U d.j.d.0.0.0.0.0.0.q.0.9.7.+.{ p Q F.Z.g.f.f.f.f.f.f.7.) q   # ",
"v s.}.C.9.9.7.7.+.) q - C s.oX@XoXXXXX).L._.L.K.G.G.D.Z.f.9.f x K d.f.e.7.7.9.9.9.9.7.7.7.5.} ( u U A.j.q.q.q.q.q.q.q.@.) q   # ",
"c -.M.9. . .X.} { r * @ C 1.{.oXXXXX'.K.J.K.J.J.G.D.Z.N.w.7.f x U 9.e.5.5.4.@.@.+.4.@.+.O.} / e u U C.g.7.7.7.7.7.7.7.O./ >   # ",
"h u ) / t t t / r , & @ v 1.~.}.}.XX).G.D.D.D.Z.Z.C.g.d.5.O.s l J @.5.X.X.X.O.O.O.X.O. .{ / / r y U B.w.5.5.5.#.4.5.+.} r = O # ",
"2 4 , , , , , > > & @ 2 c <.D.J.J.G.D.C.g.g.g.d.w.w.q.7.+.o.u x F ` { ` { { ` ` ` ` ` ` / e r 9 l P f.q.3.#.5.4.#.+.X.) ,   # # ",
"j 2 : $ ; 2 2 $ . $ 2 x V T e.e.9.7.5.4.O.O.3.O.X.O.;.X.o.s 3 c A i w w 0 0 0 0 0 0 0 0 0 0 0 2 l P j.0.5.3.X.X.O.O.} r = O l l ",
"A D A M D S B M z l z M A B m m n 8 7 7 7 7 7 7 z 7 n n N 3 l V A V n 7 3 3 3 3 ; 3 3 3 3 - - 2 l I w.0.#.O.O.X.X.{ e , . 2 v v ",
"=X=X=X=XW.T.!.V.r.:.*.' I S D A A A Z v v v C V v Z A A D A D S S S D V v V v l # n &.;.;.&.%.s l P 0.9.O.O.} } ` e , X 1 | k.-X",
"uXyXrXrXqX7X3X3X+X^.^.Y.Q.&X&XE.E.T.V.6.G V i.&XR.*XR.*X&XR.T.U.V.V.r.r.t.6.:.H 2 m 5.d.q.7.X.g z I 5.O.} } ) / t , X . t d.{.wX",
"uXuXeXeXeXtXeXwXqX7X7XqXqXwXqXqXqX2X}.N.T k >.^.`./.Y.Y.Y.Y.S.A.A.C.N.M.g.f.9.' h 8 } 5.5. .` 0 l B _ / e r q q , X % ; ..C.1X0X",
"iXuXrXwXwXwXwXwXwX7XwX0X0X0X0XwXwX5XXXC.f j 8 H H G G G G G G G G G G G G G a 8 ; 2 y Y Y i i n v M 8 5 5 * & & & @ # 6 +.~.eXtX",
"yXyXrXtXwXwXwXwX7X6X6X6X6X5X3X5X6X3X{.C.f j j k C C c x j j j j k c c k c x c c v c c v c C C C v c c l j j h h h 2 ; w e.>XrXtX",
"eXrXtXwXwXtXwXqX5X2X<X2X2X<X+X<X2X<X|.N.f j B =.>.>.>.%.H Y v I T T =.=.=.=.K L G G F A I >.a.a.z.p.p.1.<.<.-.-.J l 3 { S.8XrX0X",
"7XwXwXqXwXqX6X2X<X+X<X<X>X>X>X<X@X4XXXN.f l T $.d.q.w.0.7.f j J $.9.9.9.7.5.+.X.} ( p x E ^.<X>XoX@XoX|.).J.D.Z.5.; 3 X./.6XtX8X",
"2X6X7X7X7X5X<X<X>X<X@X<X>X>X<X+X+X+X}.N.L x K 9.7.5.5.3.#.p h U $.@.X.X.+.X.X...) / 9 h y.>XoX'.'.).'._._.P.G.Z.8.; n 9.oX7X7X,X",
"5X2X2X2X3X<X>X>X<X+X<X+X>X>X+XoX}.XX'.g.f x =.7.O.}  .} O.p h F ] ) ) ) ) ) ) / / / q @ ~ >XoX_.).(.K.J.K._.G.D.7.; M B.1X7X5X+X",
"2X<X+X+X+X+X+X>X+X+X+X+X>XoX'.'.'.'.).g.L x T 7.O.} } } X.p # V n 9 9 y y 9 < < q = * @ E >XoXXXXX'.).K.G.K.G.Z.8.; m S.>X4X5X:X",
">X+X.X{.'..X'.`.'.`.`.`.`.).J.G.J.K.G.g.L x T 7.O.} { { } p @ A U P Q U E P m 5 - - - @ y.>X>XXXXX}.'._.K.(.G.Z.8.; F /.+X+X+X.X",
"H.F.A.Z.Z.Z.Z.Z.C.j.j.g.g.j.g.g.C.Z.C.d.f x %.7.X.{ { ` } p o %.^..X XOXOXOX/.C.d.3.p @ ~ >X+X{.'._._.P._.K.G.D.6.; I D.'.H.G.Z.",
"4.4.3.3.3.3.3.3.3.;.X...3.4.3.3.3.3.3.} i x K 7.} { { | O.s o u.3X+XXXXX}.}.}.{.F.9.[ @ E .X`.~.J.J.J.G.F.F.D.g.4.; B 6.9.3.4...",
"z z z z z b z b z 3 z z z b z z z z z z z C K 5.} { ` | X.p + u.5XoX).K.L.K.J.L.D.7._ @ m 8.q.9.9.7.7.9.7.7.4.5.] ; v N - . O & ",
"v V A B A A A B A A B D D I S S D D B A A Z K 4.} | { { O.p + u.7XoX}.}.`.J.K.J.A.e._ o ; n n n n n n n n n N n 7 l c 2 @ % % % ",
"v <.V.Q.$X$XQ.Q.Q.Q.Q.Q.W.W.W.W.W.W.W.k.J Z K 5.O.{ ` { O.s + u.5X+X}.XX}.'._.K.D.9._ O l Z V A V A M V Z Z A v V A A V b 2 ; # ",
"-.Y.<X6XwXrXrXiXiXiXiXiXiXiXiXiXuXrXeX].*.V J +.O. .} {  .s + u.5X+XXX}._._.P.L.F.9.g # I U.&XT.T.T.T.T.!.!.U.V.r.r.r.e.:.' a 2 ",
"r.+X7XtXuXiXaXsXsXsXsXsXaXaXaXaXpXuXtX X*.k G X.X.X.} `  .s + u.qX<XoX}.I.I.P._.D.9._ @ ~ 2X7X6X2X<X<X<XXX}._.L.J.J.J.D.f.+.t ; ",
"c.5XeXyXiXpXpXpXpXpXaXiXuXyXrXrXeXwX6X#X*.c Y / / ( ( t / 9 @ u.qX2X+X}.I.I.P.P.D.e.g @ y.2X5X2X<XXX`.`.(.H.D.D.D.G.D.Z.d.+.w 2 ",
"m.qXeXiXiXpXiXuXrXrXrXrXeXeX0X0X7X7X<X^.*.c m 5 5 8 6 5 6 - @ u.qX2X+X}.P.P.P.I.F.9._ @ E +X>XoX{.J.D.D.A.C.Z.C.C.C.Z.g.q.+.g ; ",
"m.qXeXrXiXyXyXrXeXwXqXwXwX7X7X6X5X3X@XJ.&.c Z c c x x c c l h u.qX3XoX}.I._.I.I.F.9._ @ ,..XoX).D.C.C.C.M.C.g.C.C.C.g.g.d.5.[ ; ",
"m.qXtXeXeXwXwX0XqX7X5X2X3X2X4X2X5X3XoXS.%.c I =.T =.=.T T Y h u.7X<XoX|.I.P.I._.D.9.g + ~ {.'.D.C.B.M.C.g.j.C.C.g.C.j.g.g.7.` 3 ",
"x.qXyXeXwXwX6X5X3X2X<X4X<X<X<X3X7X5XXXA.%.x =.q.w.w.f.d.q.] h u.5X+X}.}.[.P.}.}.D.9._ h ,..X'.Z.C.N.C.C.Z.C.C.Z.C.C.C.C.g.9.| 2 ",
"x.qXuXeXwX7X<X>X+X4X@X@X<X<X2X6X7X7X.XA.*.k T M.d.e.q.f.0.f h i.5X+X}.XX}._.XX'.F.q._ @ E ^.'.D.Z.g.Z.D.Z.Z.Z.Z.A.D.g.D.g.q.} z ",
"x.qXrXwX7X5X<X<X@X<X<X<X>X<X5X6X7X2X}.A.' k T f.w.e.9.f.0.g h u.7X@XoX}.XX}.XX'.H.f.[ @ U F.'.F.D.Z.Z.Z.Z.D.D.D.D.D.D.D.D.d.;.- ",
"x.qXwX7X5X<X@X4X@X@X2X<X@X2X3X2X2X2X.XZ.*.j T w.d.q.w.f.0.f # u.7X2XoXXXXXXX}.oX^.d.] @ U D._.G.D.Z.D.D.D.F.F.G.G.G.F.G.Z.d.;.2 ",
"c.qXqX@X@X+X@X@X4X+X+X@X+X+X>X<X>X+X{.Z.f j K $.9.9.9.e.@.g j i.5XoXXXXX}.XXXXoX{.g.] @ P F.).K.F.Z.g.D.F.D.F.F.D.D.G.D.Z.d.;.z ",
"r.+X+XoX}.XX}.}.}.}.}.XX}.}.XX+XoX).H.g.f h 8 o.| ....] _ i h y.+XoX}.}.XX}.}.XX^.d.] + F j.K.G.D.Z.Z.Z.A.A.Z.Z.Z.A.D.D.C.f.;.z ",
"-.Z.~.J.J.J.J.J.J.J.J.J.J.J.J.^.{.F.N.f.G j l 3 z l z z 3 z v Q S.(.J.G.J.J.J.~.D.0.' + Y d.g.g.g.f.g.f.d.g.g.f.g.f.g.g.w.7.;.- ",
"z %.0.e.e.e.e.e.e.e.9.e.e.e.e.e.e.7.4.X.i c A S ^ ^ ^ S S D S Q 5.0.9.q.w.w.w.w.7.3.s h - ` 3.3.O. .X.X.} 3.3.3.3.} O.X.X.O.' ; ",
"c N 7 n n n n N n n n m n n m n n N n 7 3 v D 1.;X=X=X;Xj.K S A 7 n n n m m m n n n z 2 z N n n - - - - - 7 N N - - - 7 z z z 2 ",
"A D A A Z Z Z V V C V M V V A A D D A A v v Z a.6XrXeXqX/.*.D D V Z V V V Z V V V Z Z Z Z V M v Z v c l x M Z v x l x V V V V M ",
"T.E.Q.E.T.T.T.U.V.,.J k.T.T.R.&X&XR.T.k.:.G c l.qXwX3X@XS.&.Z i.&X&X*X*X&X*X*X*X&X&X&X&X&X&X&XR.&X&X&X&X*X&X&X&XR.R.E.&X&X&X*X-X",
"@X<X2X2X3X3X2X}.P.<.<.XX2X2X<X3X5X7X<X~.9.f k l.7X2XXX).g.f x u.3XqX6X3X6X3X2X3X3X3X2X2XqX2X2XqX5X5X7X0XwX7X3X3X2X2X2X2X3X2XqX8X",
"{.{.XX2X<X2XoXJ.D.%.1.<X6X<X@XoX>X>XXXD.$.s c l.3XoXK.H.w.s h ,.+X+X{.{.{.{.[.[.{.{.`.`.`.[.{.#X'.'..X.X.X{.`.{.{.{.{.{.{.{.{.Y.",
"A.D.K.{.{.{.J.Z.M.d 1.3X3X@X}.)._.).H.g.O.u l l.<X{.G.Z.9.s j >.{.).D.A.Z.A.A.A.A.Z.A.A.D.S.A.Z.D.D.D.D.G.D.A.A.A.A.A.D.D.D.D.N.",
"f.M.Z.D.D.A.Z.f.e.a 1.<XOX{.J.F.D.D.C.7.o.i l >.J.H.A.g.7.s h K D.A.M.M.M.M.M.k.M.f.M.M.M.M.M.M.f.f.M.N.M.M.M.f.f.k.M.M.M.M.M.f.",
"@.7.9.0.0.9.9.@.@.i 1.<X).D.Z.M.M.g.0. ._ 5 j m 4.d.w.9. .y @ G f.f.@.@.@.5.5.@.5.5.4.@.@.@.@.8.5.5.7.7.$.5.5.5.$.@.5.5.@.@.@.+.",
"/ ) ) ` ` ` ` { [ 7 a.@XH.f.q.e.7.@.O._ 7 b G N 3 ] X.X.) < h Y O. .) / / / / / / / / / / / / / _ ( ) ) ) / ) / / / / / / / / t ",
"< q 9 9 9 9 9 u 8 # 1.[.Z.9.@.O.X.{ e 8 M *.g.;.- : w ( / - h z u u y 6 y 6 y 6 6 < < < < < , < < < < , < < < < , , < < < < , < ",
"h l l l l l j j l c Q r.:.' s s y q 5 x ,.H.H.g.&.2 - 9 6 M U y.~ W E E Q J J F 8 5 3 4 $ + @ @ @ @ + @ + @ @ @ @ @ + + o o @ h ",
"l I ~ ^ R ~ ~ R ~ ~ i.~ W P F I I F N c p.<XXXH.j.&.3 2 M 1./.4XtX8X<X.X/.Y.V.V.r.8.:...H R R R R R R R R R R R R U ! P I m 7 h ",
"C t.OX8X1X8X8X1X:X:X9XOX:X9X9X:X;X].<.v b.6X+X).Z.7.a h =.`.2XwXuXuXrXwXqX7X3X2X2X4X2X9X4X1X1X1X1X1X1X1X1X1X1X9X9X9XOXOXOXS.| 2 ",
"V n.qXqXwX7X6X5X2X@X@X@X+X@X@X.XH.M.' k z.3XXXG.j.q.p o ,.3X0X7X7X7X7X2X2X3X2X2X@X<X@X<X2X2X@X@X@X@X@X@X@X@X@X@X@X@X@X+X{.Z.` $ ",
"v n.7X4X<X<XoXXX).J.K.(.~.~.L.A.9.} 6 x p.<X.XD.g.9.s % 2.5X3X+XXXXX{.(.~.~.~.~.K.K.K.~.(.K.K.L.J.K.K.K.(.K.K.~.(.J.K.H.C.9.g O ",
"v c.@XoX).(.K.J.D.D.A.A.Z.C.N.d.+.r 4 x p.2X^.g.e.7.u o ,.oX{.(.G.G.F.A.A.A.A.D.A.A.A.A.A.A.A.A.A.Z.S.A.A.A.Z.A.A.C.N.M.q.O.w $ ",
"v t.(.~.F.Z.C.C.C.C.B.f.w.q.0.5.} 0 1 l a.+X/.d.7.} y o K G.(.G.Z.C.C.B.N.C.B.C.C.C.M.M.M.M.h.h.k.w.M.w.w.f.f.f.f.w.e.9.@.{ 0 $ "
};
