/* XPM */
static char *_e7207eedc4d4d4bc356b4d1b013e736wiuZ2I5hCmJeTvO7[] = {
/* columns rows colors chars-per-pixel */
"64 64 168 2 ",
"   c #8D8B87",
".  c #888682",
"X  c #8C8A86",
"o  c #8F8D89",
"O  c #8F8C88",
"+  c #8B8985",
"@  c #8B8884",
"#  c #8A8884",
"$  c #898783",
"%  c #908E8A",
"&  c #8E8C88",
"*  c #918E8A",
"=  c #807E7A",
"-  c #7E7B77",
";  c #827F7B",
":  c #85837F",
">  c #86837F",
",  c #86837E",
"<  c #84817D",
"1  c #85827E",
"2  c #83807C",
"3  c #7F7C77",
"4  c #7D7A76",
"5  c #817E7A",
"6  c #817F7B",
"7  c #83817D",
"8  c #8B8984",
"9  c #898682",
"0  c #8D8A86",
"q  c #92908C",
"w  c #94918D",
"e  c #888581",
"r  c #868480",
"t  c #8C8985",
"y  c #878581",
"u  c #8A8783",
"i  c #878480",
"p  c #777470",
"a  c #75736F",
"s  c #787571",
"d  c #7C7975",
"f  c #7D7A75",
"g  c #7B7873",
"h  c #7A7772",
"j  c #797672",
"k  c #76736F",
"l  c #75726E",
"z  c #898782",
"x  c #807D79",
"c  c #7C7A76",
"v  c #918F8B",
"b  c #7A7773",
"n  c #797671",
"m  c #787570",
"M  c #74716D",
"N  c #76746F",
"B  c #84827E",
"V  c #82807C",
"C  c #84827D",
"Z  c #7E7C78",
"A  c #7B7874",
"S  c #928F8B",
"D  c #93908C",
"F  c #93918D",
"G  c #767470",
"H  c #87847F",
"J  c #86847F",
"K  c #7F7C78",
"L  c #8E8B87",
"P  c #7A7874",
"I  c #73706C",
"U  c #878580",
"Y  c #85837E",
"T  c #969490",
"R  c #908E89",
"E  c #908D89",
"W  c #787671",
"Q  c #75726F",
"!  c #76726E",
"~  c #888580",
"^  c #8C8986",
"/  c #726F6B",
"(  c #7F7D79",
")  c #6F6C68",
"_  c #716E6A",
"`  c #797773",
"'  c #706D69",
"]  c #777571",
"[  c #74716E",
"{  c #94928E",
"}  c #7D7B77",
"|  c #7C7A77",
" . c #817F7C",
".. c #7B7975",
"X. c #7F7D7A",
"o. c #797673",
"O. c #7B7875",
"+. c #787572",
"@. c #787672",
"#. c #7A7774",
"$. c #7D7A77",
"%. c #777471",
"&. c #8C8984",
"*. c #85827D",
"=. c #8E8B86",
"-. c #93918C",
";. c #767370",
":. c #8C8A87",
">. c #827F7C",
",. c #74726E",
"<. c #73716D",
"1. c #827F7A",
"2. c #92908B",
"3. c #8E8C87",
"4. c #8D8C88",
"5. c #8A8883",
"6. c #7C7976",
"7. c #807E7B",
"8. c #84817E",
"9. c #888681",
"0. c #8B8A86",
"q. c #898683",
"w. c #7F7E7A",
"e. c #8C8A85",
"r. c #8E8D89",
"t. c #84837F",
"y. c #7E7B76",
"u. c #787470",
"i. c #807D78",
"p. c #77746F",
"a. c #8D8B86",
"s. c #73706D",
"d. c #6E6B67",
"f. c #7C7974",
"g. c #8F8D88",
"h. c #82807B",
"j. c #95928E",
"k. c #989591",
"l. c #999692",
"z. c #979490",
"x. c #928F8A",
"c. c #95938F",
"v. c #96938F",
"b. c #8F8C87",
"n. c #918E89",
"m. c #979591",
"M. c #878481",
"N. c #817D79",
"B. c #999793",
"V. c #9A9793",
"C. c #858480",
"Z. c #716F6B",
"A. c #979590",
"S. c #96948F",
"D. c #989692",
"F. c #918F8A",
"G. c #95938E",
"H. c #8B8883",
"J. c #94928D",
"K. c #93908B",
"L. c #96938E",
"P. c #807D7A",
"I. c #95928D",
"U. c #94918C",
"Y. c #97948F",
"T. c #9A9792",
"R. c #999691",
"E. c white",
/* pixels */
"  . X o O + @ # $ . $ $ $ $ + % % o o &   * = - ; : > , < 1 2 3 - - 4 4 - - 5 6 - 7 8 # 9 $ 0 o % & X   q w o   0 # e . e > 1 e ",
"+ r e + 0 + t X # . y . # t X + # @ u $ $ i p a s d f 4 g g h j j s k k p k l l l j > z 2 5 2 > y > 2 2 r i > 1 ; x c 4 c d d x ",
"& y e t t # $ # # $ u t o % v X @ $ i $ $ : p l j b h h s n g g m p l p p k l M N j 2 > 2 7 < B 1 B 6 V B < < > C V Z 4 A d 4 ; ",
"o r r X X u $ $ + X X o S D F & u > : . # r b b d b j b j p p p l M M l s G l M j f 1 9 : < < 7 V V 6 7 2 2 < H J H 2 5 4 4 K 2 ",
"q $ y $ $ . u t + L 0 L v w F o + i r i # $ P A d d b j j A p M I I M M k l l k j d U 8 > 7 7 ; 2 2 = 5 x 5 5 Y , U > K d c Z < ",
"T 9 . $ # u $ + @ + 0 & R S D E   + # u + # d b 4 d 4 d j b W Q M M l M ! l M s b d e 9 6 5 ; V B 2 ; 6 x x ; C > ~ Y x K K x B ",
"  y i r y @ # # @ # X & 0 ^   X 9 # & L o 0 K A d d d d s s p k p k M I / / M p n b < r x = V B < < 2 5 ( K 2 1 1 U 1 5 - c - x ",
"+ $ $ y r r y 9 @ $ u t + t + + . # & v S % 5 A b A A j p G G k k l / ) _ / M p s j C r 5 5 2 < B < V ; 5 x ; C Y H < x 4 A A ` ",
"u . . r > y y . @ # 9 9 + + + & X   % v % E x A b d b k k k a M M / _ ' / I M s b b < : = K K x ; 5 = 5 x = 5 7 1 < 5 K - - - c ",
"> : . . $ . . 9 u # $ # # $ # X @ & E * L . c j j j s s p ] s M I I / I [ M k j j b x = Z Z ( 5 6 ; 7 5 - 4 ( < < ; 6 x K K - c ",
"9 r + 0   + $ + X u y u o &   & & v w { S % X $ y r i J > . y 6 } 5 ; ; 6 K 6 : 2 y   $ r e @ t + y r > V ; < y u + e 1 1 i : 7 ",
"< 5 5 ; 5 x 5 1 > i + o * t + 0 X O S q { T { O O X # 0 o % & # y = | | } c Z V B . .  .c } 6 7 6 = 5 Z  .$ i 1 > i i 2 ; 5 5 ; ",
"K K 4 - - x 2 > i e 0 v o t X t X E v & O O 0 + @ $ X O q { v o + c ..} ( X.6 = = ( c ..` o...4 ..P P ` O.r 2 ; ; 2 < 5 x x = 5 ",
"- 4 d c d 4 5 1 i i @ O   + # 9 @ L %   X X t @ # $ + o q q % % + ..Z = = 6 2 5 ( Z 4 P ` +.o.` ` s ] @.] V 5 5 ; ; ; 5 x 5 5 K ",
"Z A A - d A K ; 5 5 i t X # . e +   & & 0 X   X X 0 L O * v % * t c } } Z ( 6 6 = = } ..P @.@.@.@.o.O.#.] K 4 4 - 4 - x x x < 5 ",
"- d d - 4 d - 5 K ; . X X &   $ @ X o & X 0 o o o q q * v v % o $ b ..c 4 Z = 6 5 = K $.P @.@.@.` P ..b %.- d d b d d 4 x 5 ; 5 ",
"4 d 4 - K - K 2 ; < &.L + 9 L 0 + X % o   X O % o % E * o X # # y o.@.+.@.c x 5 = ( ( Z P +.s +.@.@...@.a c A A A 4 4 4 x x K K ",
"x - - - - 5 x ; ; *.=.-.+ $ # & 0   * * X 0   o &   o * X $ i r B G ;.Q %.P Z ( = Z ( Z } #.` ` ] ` P @.+.5 d d - K - 4 4 x x K ",
"- - - K 5 x K x ; , =.w   :.t     o % % O 0   % & L o * L @ e r >.Q ,.<.,.@.c Z Z } Z ( Z P ] j ` ` ` s @.2 d - - K K 4 4 4 K K ",
"s A - x 5 x - x 1.1 t 2.3.4.0   L   & % E o O o o o o o & X $ : c ;.G G a G @...c - Z Z - A G @.` b @.] p K d - 4 K x 4 d A d d ",
"p d x 2 2 ; ; ; 1 , U 5.X   t X & O o v D v o & & o o &   0 # 7 } c } c 6.c c } Z Z c ..} } ....} d P o.o.} A x x 5 x - - - - P ",
"( 7.> 9 y 1 1 < : $ 0 $ r . $ e e E D F T { &     o % o   u y # X $ @ . : : B y # # # B 8.r y r 9 7 = = 5 5 K 2 5 4 x 6 5 4 d 4 ",
"r = ( 5 = Z ( 5 6 7 y > 7 V V 6 ; 1 < 7 i q $ r 9.. # # y > i 9 . y $ y B B B r r . o 1 A s s j b s p p s k p A k / / M s k M ] ",
"$ 5 = ( K } K V V ; B < V 2 6 = 6 < 7 6 7 v 0.. $ . 9 9 y y $ 9 y 9 # $ : : > : r . # K p l k p p l k k l M p j l M I I s s p p ",
"+ 7 7 6 K } } = 2 V 7 2 2 6 ( K ; < 7 6 V O # @ + . e y : : 9 $ # # + + q.e . . . u # } k k k k p l k k M M k k M I I k j k p s ",
"  7 2 V x ( } ( 2 7 V 6 6 = ( w.V < 2 6 ; o # + X X . : 7 < y $ t + 0   ^ + @ $ . # # } p p k l k k k M I I M l M M I I k p s b ",
"e.< 7 5 } - - } x = 6 V = x ( = ; 7 V 6 7 r.$ # # + . : B 7 : . + t t @ @ X 0 # y . u - s b ] ,.I l l l M M k k k p M I G j b A ",
"t *.J V c b d ..} ( 6 7 < ; ( = 6 6 V V t.O . $ # # $ r : : 1 i 9 t X @ +   X # $ $ + 4 k j s k M M M l l k l l l k l M p s h y.",
"u 1 > V Z d 4 c K ( 6 2 B V ( 6 6 V 7 C r * $ $ y . i y r : > r . @ X t   X e.0 8 # # c G p ] %.k k p s s p l M I l l M u.n n i.",
"8 1 r 2 ( K Z ( = 6 7 r r B < 2 7 < B B :   $ $ e . . . . r r i $ + 0   & X e.3.X # . d G G p ` b ..4 d d b p l I / / _ l p.s i.",
"5.7 B 7 7 5 ( x 5 V B : y y r : 7 V 7 : 7 7 > . . $ . 9 . r r i $ @ L   3.& a.a.e.. C b ] s s P 4 4 4 d d j p G s.' ) d._ / I f.",
"+ e + L L   + . y B 6 : $ y y r B B . r 6 7 : # @ O * o 0   # i r $ X 0 3.g.L a.e.> h.P j b A b c K K ; < i > 1 5 - - d d - K 1 ",
"0 E j.k.l.l.w &   # . . u $ $ $ i : : 7 : . y # O D v 0 u u r y $ @ E R * g.O g.8 e U 7 B < > : > r i @ 0 k.z.j.S * S E 0 0 0 O ",
"t E w j.w w S E E E v . < 2 6 V ; = K 4 K ( = 7 r e i < x K 5 e & L L L 0 t a.e.@ $ > 7 < 2 2 < < < 1 y 9 F w S L L L O 0 @ u @ ",
"E * S D w S x.D S D c.1 2 ; 6 5 ; 5 x ( ; V 2 < < 1 7 ; ; ; 1 y * 3.L % 0 @ t @ u 9 i B 1 > < 2 < 1 : i e S O O 0 L O * * E 0 L ",
"S * * * w D w j.w v.v.1 5 ( 6 V ; 5 2 6 5 ; x x 5 2 6 ; < ; 2 . * b.a.3.0 u # u e 1 B 7 < 1 1 B 7 > i 1 > O t t @ t 0 O * n.O E ",
"E E L O E * w j.w j.m.: K K ; 2 6 - x < 2 x K K K 5 ; 2 ; x ; 0 j.0 t @ u u u . i < 2 2 > e 9 . 9 9 9 i r o L t L 0 t t L 0 0 O ",
"L 0 L 0 0 O * w w j.j.6 Z x ; B 1 V ; ; 6 x 5 5 5 5 ; ; 5 - 5 X D t 0 @ 9 9 @ i i 1 2 ; > 9 . e u @ @ 9 e O L 0 O L t u t 0 0 L ",
"t 0 0 @ @ t O D D w D x ( 5 7 < 1 1 1 5 6 7 < 2 ; x K - 5 x ; t D t t # $ 9 . i i > < < 1 i i e 9 @ t @ . L t 0 L L L t @ t t 0 ",
"9 @ t u t t O * S w q ; ( = B i 1 1 > 2 ; 2 ; 5 = - b j d K ; X q 0 0 + u . i i i > < < > i i e 9 @ t 0 @ E O 0 =.L L L u e > > ",
"u 0 O @ t O * S * D D < V 7 1 e y r 1 < 6 K 5 5 = K d c c - ; 0 D t 0 @ e i i i > > 1 > i e e e 9 u @ t @ E E L E O L @ i i u M.",
"@ 0 O L 0 L E * * F c.y : > i i > B 2 6 5 ( 5 5 5 = K - K - N.e   9 t $ i > i > < < V B : : : r u u u u > $ 0 * E E L t e i 9 e ",
": # L o L u 9 @ 0 o o . $ 0 L   # u $ > V ; . 0 X # $ $ e e e # o o * o 0 + X u y B Z = 1 e # X t @ # @ $   t O v % 0 + t # i 2 ",
"..p s b b s l p j d 4 A d - x K d 4 P j - # % F q 0 t @ + 0 E q B.V.z.F * * S 0 t # $ C.; ; > e < 6 V r $ $ 1 ; B 7 x K - c K < ",
"I ' ' l l M _ _ I k p k p s p k k p l M G + F j.D L 0 0 0 t o E F v.j.q O L L 0 0   o > 5 ; V 2 K x 2 < 7 5 ( x x = K 4 d d } 2 ",
"/ ' _ M l l I / / M k p p p k k I M I / k 0 F S % O 0 L 0   E v j.v.j.F * L 0 0   O v i 7 < ; = ( 5 B B ; ; 6 2 ; 5 - 4 - K x 2 ",
"/ _ ) M p l / / / l k k k k k / d./ l M s L q E o & L   0 & S F v.v.j.D * o   0 L L % y < 2 5 - = ; : < 6 = = 5 x K 4 4 K K K 5 ",
"/ _ _ l l I / Z.M p p p l G l / I M k p b L S * E L L 0   E D F j.j.j.D L L 0 0 O L * y 2 ; x ( 6 V 7 1 ; = K - - - d 4 K K - x ",
"M I I I _ _ / M l p s k / M k k l l s p j X q q S O * E O E S S D w { *   t 0 L O O % i < ; = x K = 5 V x - } - 4 c 4 - x K 4 x ",
"l / M l _ ' ' l p k l / _ l G p p k s p @.X D q v v * v o % S & o S v o L 0 L & * D { 9 : 7 5 = K - ( V 5 - d - 4 d c - x K - ; ",
"_ _ M M / _ _ l s p p k k s b b p p j s b X T v.{ w D E O % * 0 0 t L o L @ O v S w A.+ i > 2 6 ( } ( 2 6 4 A - Z 4 Z } K 5 x 2 ",
"_ I l M / _ ' M p p ] s j b b j k j A A d $ w T v.w { * L O L + @ u t L + +   * w j.S.e.y i 1 < V ( x ; x 4 c d c - K 4 - ; ; 5 ",
"G ] j j j G k b b j d A ..A ..d d - 4 4 ; e   F D v q E   0 # . $ # + 0 0   e.3.x.-.R U i i 1 r 1 ; = 5 ( Z - 4 K 5 ; 5 K x K K ",
"$ . +   X $ 9 L 0 X % 0 0 X t & E S & & c.D.T m.m.T j.D v O & y r @ 0 % % o 0 * F.F.G.F.a.  # + $ $ + e ; 7 u t 0 $ 0 X i i t X ",
"@ u 9 t 0 t u @ H.0 w O L L L L L O E * v.z.v.j.j.c.w w w E L # B - ( 6 ; B < r 5.a.J.F L t # 0 u . $ $ y $ # 0 t @ O L u t * L ",
"u @ @ t t t t @ u t D E L O O L 0 t L L S w w w w j.w j.D * L   e ( ( - ( B 2 2 > r i > : < B y y > : B y   0 0 t t L @ t E K.0 ",
"9 @ 0 0 0 L O O 0 L T E L E O O L L O O O E w w w L.w D D S E * # = ; x x ; ; < 1 1 < 7 7 V V 1 i r > 7 B 0 L 0 t 0 0 @ L O E 0 ",
"@ u 9 t O n.E * E O * 0 0 L O L L L O L L E D w j.v.w S D S E * 9 ( K - ( 5 6 ; ; 5 V ; 5 P.>.1 e r : < 7 X L L L 0 t t L E L 0 ",
"@ t t O O E * S S E O 0 t L 0 0 L 0 L 0 0 L * w L.v.I.D D * E O r } - c 4 K K 5 6 5 ; 5 ( ( 6 2 r r y > B L S D O @ u t O O @ @ ",
"@ 0 L E * S w w D D S O L L @ @ 0 0   L O O E w j.v.j.w S * L E e } K x = K Z = 5 ; > 7 6 x 6 ; 2 B y r > L * S E @ u L E 0 t @ ",
"E O O O * S D D S S { S O L @ @ @ 0 0 O E L O D j.L.j.w D E L * # 6 5 = x ( - K ( 5 B B < 6 V 2 2 < e 1 < O * * O t u L O 0 L L ",
"* S D S S * S S * * q * * E O t @ @ t 0 O O L E j.j.U.w I.* n.-.0 1 2 ( } } 4 ( 6 V 2 : 1 < 7 V 2 1 > 2 2 o S E L 0 0 L L 0 E O ",
"L E * * S * * S % t y u O L O O @ u u 0 0 0 L D Y.j.K.w I.K.K.v.R > 2 x - } ( = ; < < 2 ; ; V 7 1 1 2 6 6 9 E E E E L 0 t 0 E L ",
"E * * * E O O E & . y y @ O w v.D v E S * E S v.l.T.l.T.z.Y.Y.R.S U 1 ; K ( 5 6 5 ; 6 K K 6 1 r : 1 < 7 6 r 9 E E O 0 t t 0 O * "
};
