/* XPM */
static char *result[] = {
/* columns rows colors chars-per-pixel */
"64 64 204 2 ",
"   c #2D2A26",
".  c #282622",
"X  c #4F4C49",
"o  c #72706C",
"O  c #7C7976",
"+  c #888581",
"@  c #98928D",
"#  c #9F9993",
"$  c #9E9892",
"%  c #A09993",
"&  c #9D9892",
"*  c #9A918F",
"=  c #9A8C8C",
"-  c #9A8D8D",
";  c #9C8C8C",
":  c #9D8C8C",
">  c #A08C8C",
",  c #A48C8C",
"<  c #A18F8F",
"1  c #9A9999",
"2  c gray59",
"3  c gray54",
"4  c gray49",
"5  c #747474",
"6  c #5D5D5D",
"7  c #2C2C2C",
"8  c gray16",
"9  c #2D2D2D",
"0  c gray37",
"q  c #737372",
"w  c #7E7C79",
"e  c #898783",
"r  c #93918E",
"t  c #979490",
"y  c #9A9691",
"u  c #9B9792",
"i  c #9F9893",
"p  c #9C9792",
"a  c #97948F",
"s  c #9C9791",
"d  c #A19993",
"f  c #A19A94",
"g  c #A19A93",
"h  c #A29A94",
"j  c #9C948E",
"k  c #928A84",
"l  c #827C77",
"z  c #706D69",
"x  c gray14",
"c  c #444445",
"v  c #818282",
"b  c #989999",
"n  c #989899",
"m  c #9B9B9C",
"M  c #9C9D9E",
"N  c #9B9C9D",
"B  c #9C9E9E",
"V  c #989A9A",
"C  c #929595",
"Z  c #929494",
"A  c #969898",
"S  c #989B9B",
"D  c #959999",
"F  c #959898",
"G  c gray60",
"H  c #959595",
"J  c gray57",
"K  c #8E8E8E",
"L  c #606060",
"P  c #282828",
"I  c #272727",
"U  c #585858",
"Y  c #99999A",
"T  c #9D9D9D",
"R  c #9D9E9E",
"E  c #9D9D9E",
"W  c #9C9C9D",
"Q  c #959697",
"!  c #939394",
"~  c #929394",
"^  c #979899",
"/  c #969798",
"(  c #979898",
")  c #959696",
"_  c #939495",
"`  c #919192",
"'  c #838484",
"]  c #3F3F3F",
"[  c #818180",
"{  c #9A9A9A",
"}  c #939392",
"|  c #979696",
" . c #979797",
".. c #8D8D8C",
"X. c #929292",
"o. c #939292",
"O. c gray55",
"+. c #8D8C8C",
"@. c #8B8A8A",
"#. c #8C8B8B",
"$. c #909090",
"%. c #929191",
"&. c #908F8F",
"*. c #8D8D8D",
"=. c #8B8B8B",
"-. c gray56",
";. c #939393",
":. c gray36",
">. c #535353",
",. c #989898",
"<. c gray58",
"1. c #979796",
"2. c #949493",
"3. c #8C8C8B",
"4. c #919090",
"5. c gray50",
"6. c gray25",
"7. c #7B7B7B",
"8. c gray52",
"9. c #848484",
"0. c #898989",
"q. c gray53",
"w. c #838383",
"e. c #868686",
"r. c #797979",
"t. c #888888",
"y. c gray51",
"u. c #5B5B5B",
"i. c gray32",
"p. c gray46",
"a. c gray48",
"s. c #818181",
"d. c #727272",
"f. c #7E7E7E",
"g. c #808080",
"h. c #7C7C7C",
"j. c #767676",
"k. c #777777",
"l. c gray47",
"z. c gray45",
"x. c gray43",
"c. c #6C6C6C",
"v. c gray42",
"b. c #717171",
"n. c gray44",
"m. c #6A6A6A",
"M. c #5A5A5A",
"N. c #515151",
"B. c #6D6D6D",
"V. c #414141",
"C. c #646464",
"Z. c #676767",
"A. c #656565",
"S. c #6F6F6F",
"D. c gray31",
"F. c DimGray",
"G. c gray40",
"H. c #686868",
"J. c gray39",
"K. c gray22",
"L. c #4B4B4B",
"P. c gray29",
"I. c #484848",
"U. c #4C4C4C",
"Y. c #494949",
"T. c gray26",
"R. c gray15",
"E. c #222222",
"W. c gray13",
"Q. c #252525",
"!. c #1E1E1E",
"~. c gray12",
"^. c #202020",
"/. c gray21",
"(. c #353535",
"). c #343434",
"_. c #323232",
"`. c #313131",
"'. c gray18",
"]. c #2A2A2A",
"[. c gray20",
"{. c #3A3A3A",
"}. c gray28",
"|. c #9B9B9B",
" X c gray62",
".X c gray61",
"XX c #434343",
"oX c #444444",
"OX c gray19",
"+X c gray27",
"@X c #464646",
"#X c #626262",
"$X c #373737",
"%X c #232323",
"&X c gray17",
"*X c #393939",
"=X c gray34",
"-X c gray24",
";X c #3C3C3C",
":X c gray23",
">X c gray38",
",X c #5F5F5F",
"<X c #2F2F2F",
"1X c white",
/* pixels */
"  . X o O + @ # $ % & * = - - ; : : : : > , , , , < 1 2 3 4 5 6 7 8 9 0 q w e r t y u u $ i i % p a s d f g g g f f g h j k l z ",
"8 x c v b n m M M N N B B B B V C C Z A S D S F S A G H 2 J K L P I I U K b Y T R E W W M N N N Q ! ! ~ ^ / ^ ( ^ ^ ^ ^ ) _ ` ' ",
"8 x ] [ { J } |  .} ..X.o.O.+.O.@.@.@.#.$.%.&.%.$.%.*.=.-.;.3 :.P P I >.-.,.$.<.| 1.$.*.2.$.3.*.#.3 =.@...X.4.J J J J #.O.4.;.5.",
"8 x 6.7.$.X.J *.;. .$.O.*.8.9.O.*.O.O.$.;.J ;.J ;.-.O.*.0.8.8.6 P I I >.q.$.;.-.K H 2 K *.O.w.q.*.*.O.O.X.J X.X.X.X.*.O.O.e.e.4 ",
"8 x 6.r.<.J O.O.O.<.;.O.8.w.9.t.;.=.$.<.*.O.J ;.J X.$.J y.e.4 u.P I I i.e.H -.O.O.K 2 $.=.y.e.y.K $.=.;.X.O.*.;.X.X.$.J O.y.e.p.",
"8 x 6.a.H J O.O.=.X.X.O.w.9.8.t.<.O.$.;.O.=.$.;.K <.J $.y.q.7.u.P I I i.e.2 K O.O.O.<.-.3 s.e.w.K X.=.X.$.=.O.;.J J ;.X.=.w.e.d.",
"8 x 6.a.-.X.J O.O.*.*.8.9.9.q.J J X.t.9.=.=.O.0.y.-.-.w.8.5.7.u.P I I >.8.-.;.-.O.O.K =.w.8.w.=.$.X.$.8.e.O.=.*.8.9.X.3 w.9.f.5 ",
"8 x 6.a.K =.X.$.3 =.9.w.8.9.8.3 O.0.=.7.w.q.9.q.f.5.g.f.5.5.w.:.P I I >.8.*.*.;.*.3 3 y.8.w.8.8.K t.*.8.7.e.8.e.9.f.g.5.5.f.y.7.",
"8 x 6.r.O.w.q.8.f.5.4 h.w.9.w.8.f.h.g.4 4 w.w.8.=.h.4 t.8.4 h.:.P I I i.9.3 y.t.y.f.5.h.4 8.w.8.9.h.f.g.h.f.9.s.0.q.r.s.0.y.4 j.",
"8 x 6.d.r.5.f.k.a.7.h.j.k.w.9.4 k.p.5.w.g.s.l.4 g.r.j.4 h.p.l.u.P I I i.r.l.y.a.r.a.7.7.p.7.8.y.7.p.k.w.s.y.f.l.g.5.k.k.5.r.j.z.",
"8 x 6.x.x.c.k.5 v.b.k.p.p.l.l.n.j.p.d.k.l.p.l.7.k.p.5 m.b.l.d.M.P I I N.z.m.b.l.d.v.p.j.j.5 a.p.b.k.5 z.l.k.j.r.a.p.j.n.v.p.k.B.",
"8 x V.C.Z.A.B.c.m.v.b.b.n.j.c.S.l.x.m.B.v.B.c.x.x.5 v.v.c.k.n.M.P I P D.Z.A.Z.S.m.c.v.5 x.z.5 m.z.j.v.v.c.c.c.x.B.b.b.v.F.n.k.v.",
"8 x 6.A.G.Z.Z.Z.B.c.H.H.F.C.v.z.x.c.H.Z.H.G.H.G.F.H.F.G.m.G.G.U P I I D.H.A.F.G.F.B.v.Z.F.H.A.S.d.B.c.Z.H.Z.H.Z.Z.F.F.H.Z.F.A.J.",
"P x K.L.P.P.P.P.L.L.P.P.P.I.L.U.P.L.P.P.P.P.P.P.P.Y.P.Y.L.I.P.T.R.I R.T.L.Y.L.Y.L.L.L.Y.P.Y.I.U.U.L.L.P.P.P.P.P.P.P.P.P.P.P.I.Y.",
"E.W.x R.R.R.R.R.Q.Q.R.R.R.R.Q.Q.Q.Q.Q.R.R.R.R.R.R.R.R.R.R.R.R.Q.W.E.W.Q.R.R.R.R.R.R.R.R.R.R.R.Q.Q.Q.Q.R.Q.R.R.R.R.R.R.R.R.R.R.R.",
"!.~.!.!.!.!.!.!.!.!.!.!.~.~.^.^.^.^.~.~.!.!.!.!.!.!.!.!.!.!.!.!.~.!.!.!.!.!.!.!.!.!.!.!.!.~.~.^.^.^.~.~.~.!.!.!.!.!.!.!.!.!.!.!.",
"/./././././././././.(.)._.`.'.].].7 `._.[.(./././././././././././././././././././././.(.[._.`.7 ].].'.`._.).(./././././././././.",
";.;.<.;.<.;.<.;.;.<.K w.l.n.I.R.R.{.F.k.s.O.<.<.<.<.<.<.<.<.<.;.;.;.;.<.;.<.;.<.;.<.;.=.g.j.H./.I R.L.n.a.9.-.<.<.<.<.<.<.<.;.;.",
"<.;.G ,.G ,.G ,.G ,. .H ;.9.}.x R._.n.,.G |. X XT .XT T .XT |.<.<.;.H {  .{  .{  .{ 2  .;.;.p.).R.Q.XXy.{ G .X X XT .X.XT G ;.<.",
"3 =.O.X.$.J $.J $.=.O.$.X.f.oXx R.OXc.,.;.$.H 2 H *.-.<.*.=.O.=.3 3 =.K X.-.X.$.X.K =.O.J $.S.[.R.Q.] 5.G $.X.2  .X.*.O.=.=.3 3 ",
"*.=.X.J X.J J J K O.O.e.8.h.+Xx R.`.F.K J ;.*.$. .;.O.O.0.y.O.*.*.O.O.;.$.;.$.X.$.*.O.=.9.e.S.[.R.Q.6.a.-.X.X.*.;.2 J 8.8.*.*.K ",
"-.w.e.*.O.O.9.9.$.t.9.w.4 k.+Xx R.`.F.O.-.<.*.O.K *.q.w.q.y.J -.X.O.s.3 O.O.=.y.t.J w.e.5.f.c.).R.Q.6.r.*.X.X.O.*.K *.w.q.J -.<.",
"$.q.f.t.8.t.8.5.y.g.f.4 w.7.+Xx R.`.F.*.*.$.;.O.*.0.w.e.y.q.8.$.q.$.y.g.0.w.0.s.g.y.5.f.f.8.S.[.R.Q.6.r.-.*.X.J =.*.e.8.8.3 K s.",
"*.$.*.=.=.J K K K K q.y.9.p.+Xx R.`.H.$.X.*.*.=.-.X.=.q.s.e.9.X.*.K $.=.=.=.X.O.$.*.-.w.9.y.v.).R.Q.6.r.;.$.*.*.=.J $.3 9.0.X.3 ",
"-.8.q.O.=.*.8.8.X.3 w.9.f.p.+Xx R.`.F.*.$.;.*.O.*.K t.y.8.9.-.$.;.O.w.3 O.=.O.y.3 X.8.8.s.4 v.).R.Q.6.r.-.X.J O.O.*.*.8.t.J J <.",
"K 9.7.e.9.e.9.f.5.f.5.4 y.7.+Xx R.`.F.*.=.-.X.3 3 q.s.e.w.8.e.K e.K f.f.q.w.q.s.f.g.f.5.4 9.S.[.R.Q.6.r.K =.X.$.0.=.9.y.8.3 O.g.",
"f.5.h.f.9.s.0.q.r.y.0.s.h.j.+Xx R.`.H.=.e.9.q.5.5.f.h.5.e.w.e.g.7.5.f.h.g.9.s.O.s.a.e.t.f.4 c.).R.Q.6.l.O.w.e.9.f.5.4 f.9.8.4 r.",
"l.w.s.w.4 l.5.f.j.k.f.l.j.5 @Xx R.`.A.a.a.s.k.a.a.h.r.p.5.e.f.r.5 7.9.5.w.r.7.g.7.p.a.4 j.l.v.).R.Q.6.b.l.f.f.k.a.7.7.s.9.h.k.z.",
"d.d.k.j.p.r.a.p.j.S.m.p.k.x.@Xx R.`.J.d.F.p.j.B.B.k.p.j.p.a.b.z.k.b.5 l.p.j.a.l.5 p.c.B.l.p.Z.).R.Q.6.B.B.v.k.5 v.b.j.l.k.n.j.r.",
"m.c.v.c.v.x.c.b.b.v.m.n.p.B.@Xx R._.6 H.C.m.x.m.c.B.5 B.j.S.c.k.d.F.c.m.B.v.x.c.5 B.v.F.p.z.G.(.R.Q.6.C.Z.A.B.c.v.v.n.p.c.n.k.d.",
"v.G.H.G.Z.G.Z.H.H.Z.Z.H.J.G.+Xx R._.6 Z.A.H.A.v.c.F.Z.F.A.G.d.S.c.m.A.H.A.H.A.H.Z.H.G.H.G.C.#X).R.Q.6.C.A.Z.Z.Z.c.c.H.C.v.d.B.c.",
"Y.I.I.I.I.I.I.I.I.I.I.I.@XY./.x Q.9 }.I.I.I.I.Y.Y.I.}.I.}.I.P.Y.Y.Y.}.I.I.I.I.I.}.I.}.I.}.}.}.7 R.x $XY.I.I.I.I.Y.Y.I.}.Y.P.I.Y.",
"x x x x x x x Q.Q.Q.Q.Q.Q.Q.%XW.W.E.Q.x Q.Q.Q.x x x Q.x Q.x x x x x x x x x Q.x Q.Q.Q.Q.Q.Q.Q.E.W.W.%XQ.Q.Q.Q.Q.x x Q.Q.x x x x ",
"W.W.^.~.~.!.!.!.!.!.!.!.!.!.!.!.!.!.!.!.!.!.!.!.!.!.!.!.!.~.~.~.^.^.~.~.~.~.!.!.!.!.!.!.!.!.!.!.!.!.!.!.!.!.!.!.!.!.!.!.!.!.~.~.",
"&X].OX).(.$X*X{.*X*X*X*X*X*X*X*X{.{.{.{.{.{.{.{.{.{.{.*X$X(.).OXx P x OX).(.$X*X{.*X*X*X*X*X*X*X*X{.{.{.{.{.{.{.{.{.{.{.*X$X(.[.",
"].Q.U.d.4 t.X. . . . . . . . . .2 2 H 2  .2  .2  .2  .<.3 5.j.6 8 I ].6 j.s.=.H  . . . . . . . .2 H 2 2  .2 2 2 2 2 2  .J e.h.n.",
"8 x XXy.{ ,.|.T T .X|..X.X|..X .X.X.X.H ,.2 G 2 G 2 G <.2 ;.-.L P I I =X-.{ G .XT T |.|.T .X.X|.H X.X.X.,. .,. .,. .,. .H H ;.9.",
"8 x ] g.G J X.2  .X.O.J X.=.=.O.3 =.3 =.$.X.$.J $.X.O.=.K X.0.:.P P I >.K  .$.<.2 2 $.O.;.-.3 O.=.3 =.3 O.X.$.J $.J $.=.=.-.X.f.",
"8 x 6.7.$.X.J *.X. .J *.O.8.w.=.*.O.*.J X.$.;.J <.-.O.*.t.9.8.6 P I I >.e.$.;.-.K H  .K *.=.w.e.*.*.O.*.;.J X.X.X.;.*.*.O.8.e.h.",
"8 x 6.r.;.J *.=.O.;.X.=.8.9.8.3 ;.*.K X.*.O.$.X.-.;.$.-.w.8.h.u.P I I i.e.<.$.O.=.*.<.-.0.w.8.9.K J O.$.J O.*.X.$.$.X.J 3 w.9.5 ",
"8 x 6.a.-.X.J *.O.*.O.8.9.9.q.$.J X.t.w.=.=.=.0.g.K K y.8.5.h.u.P I I >.8.-.;.-.O.O.*.=.w.8.w.=.J X.$.8.8.O.3 O.8.w.J 0.y.9.5.p.",
"8 x 6.a.K =.X.$.0.3 w.w.8.9.9.3 3 q.3 7.y.e.9.q.g.f.5.5.5.5.w.:.P I I >.8.*.O.;.O.0.0.s.8.w.8.9.*.q.O.8.7.8.8.8.8.f.5.5.5.f.y.7.",
"8 x 6.l.=.w.e.9.f.f.4 h.y.8.w.8.4 7.5.f.4 w.w.9.O.h.4 0.8.h.h.u.P I I i.w.0.y.q.s.f.f.h.h.8.w.8.w.7.4 5.4 f.9.s.t.t.r.s.3 y.h.p.",
"8 x 6.b.k.f.4 k.r.a.h.j.j.y.9.7.k.p.5.w.g.s.k.4 5.r.p.7.7.p.k.u.P I I i.l.j.s.r.l.r.7.7.p.a.8.s.a.p.k.y.s.y.4 l.5.f.j.k.h.l.j.d.",
"8 x 6.B.B.v.k.5 m.n.j.p.p.l.k.n.j.p.n.p.k.5 l.a.j.p.z.F.b.l.d.M.P I I N.d.F.S.k.b.m.5 p.p.5 r.z.b.k.z.b.k.j.p.r.r.p.j.n.m.p.l.c.",
"8 x V.C.G.A.B.v.v.c.b.n.n.p.c.n.l.x.m.c.v.c.c.B.B.z.v.v.c.j.n.M.P I P D.Z.A.Z.x.m.B.v.z.x.z.z.v.5 j.v.v.v.c.v.B.c.b.b.v.m.n.j.v.",
"8 x 6.C.A.G.G.G.v.v.G.Z.H.#Xm.b.c.v.Z.A.Z.A.Z.C.H.G.H.A.H.C.C.=XP I I D.Z.C.H.C.H.c.m.G.H.G.J.x.n.v.v.A.Z.G.Z.G.G.Z.Z.G.G.H.J.#X",
"8 x $XI.@X@X@X@X}.}.@X@X@X+X}.I.@X}.@X@X@X@X@X@X@X@X@X@X@X+X@X] Q.I R.] }.@X}.@X@X}.}.+X@X@X+X}.}.@X}.@X@X@X@X@X@X@X@X@X@X@X+X+X",
"P x %Xx x x x x x x x x x x %X%X%X%Xx x x x x x x x x x x x x x W.W.W.x x x x x x x x x x x x %X%X%X%Xx x x x x x x x x x x x x ",
"~.~.!.!.!.!.!.!.!.!.!.!.~.~.^.W.W.W.~.~.~.!.!.!.!.!.!.!.!.!.!.!.!.!.!.!.!.!.!.!.!.!.!.!.~.~.~.W.W.W.^.~.~.!.!.!.!.!.!.!.!.!.!.!.",
"-X-X-X-X-X-X-X-X-X-X;X*X$X/.OX].].'././.*X:X-X-X-X-X-X-X-X-X-X-X-X-X-X-X-X-X-X-X-X-X-X:X*X/.(.9 ].].`./.$X*X;X-X-X-X-X-X-X-X-X-X",
",.,.G ,.G ,.G G G G ;.t.4 5 Y.Q.R.{.B.h.q.J G G { { { G { { { ,.,.,.,.G ,.G ,.G ,.G ,.$.8.7.c.$XR.R.U.5 5.3 H { G { { { { G ,.,.",
"J J  .2  .2  .2  .H <.<.;.w.@Xx R._.S.,.,.G .X.X|.{ { |.{ |.G X.J J X.,.H ,.H ,.H ,.<.2 ;.;.5 ).R.Q.T.s.{ ,.{ .X.X|.{ { |.2 J J ",
"=.3 *.X.J J $.J $.=.=.-.J 4 +Xx R.OXc. .;.J H 2 H *.K ;.O.3 O.=.=.=.=.K X.$.X.$.X.K 3 O.$.-.S.[.R.Q.] 5.,.J X.H  .;.*.=.=.O.3 =.",
"O.K ;.$.X.X.;.;.*.*.O.8.e.h.+Xx R.`.F.K J X.*.$. .<.*.*.q.y.0.K O.O.-.;.-.;.J <.J O.K 3 w.q.S.[.R.Q.6.a.$.X.J *.X. .X.e.w.=.*.O.",
"O.$.$.O.*.X.-.J X.J 0.w.w.5 @Xx R.`.H.$.;.K O.O.$.<.*.q.y.8.e.X.-.*.J K O.K ;.K X.J J 8.8.g.m.).R.Q.6.r.;.X.*.=.O.X.X.3 9.=.;.K ",
"$.9.8.O.3 O.9.w.J t.y.w.f.j.+Xx R.`.F.*.$.;.K O.*.*.q.y.8.9.-.J X.*.y.t.O.3 =.g.t.J w.9.s.f.c.).R.Q.6.r.K X.X.*.O.*.O.8.t.$.J X.",
"*.9.7.8.9.e.8.f.f.5.g.f.y.h.+Xx R.`.F.*.=.K X.3 3 e.s.e.w.8.e.*.9.*.f.f.e.w.q.y.f.5.5.g.4 9.S.[.R.Q.6.r.K 3 J $.0.3 w.y.9.3 =.f.",
"4 5.4 f.9.g.0.q.r.s.3 s.h.j.+Xx R.`.H.3 8.w.8.f.f.4 h.f.e.w.e.5.a.f.5.h.s.9.g.O.s.a.e.t.4 h.c.).R.Q.6.k.=.w.8.w.4 f.4 f.9.9.h.r.",
"l.y.g.y.h.l.5.4 j.j.h.k.j.z.@Xx R.`.A.r.l.g.j.r.r.h.l.p.4 8.4 l.p.7.w.5.w.r.7.5.7.p.l.7.p.k.m.).R.Q.6.b.k.4 4 k.r.a.7.s.w.7.k.z.",
"b.b.j.p.5 r.r.p.p.S.m.p.k.x.@Xx R.`.#Xb.Z.z.j.c.c.j.5 p.p.r.n.z.k.n.z.k.5 j.a.k.5 p.v.c.l.p.Z.(.R.Q.6.B.B.m.j.5 m.n.j.l.j.S.j.r.",
"v.c.v.c.v.B.c.d.b.v.m.b.p.B.}.x R._.6 H.A.v.x.v.B.x.z.B.j.S.B.l.d.m.B.v.B.v.x.c.5 B.c.m.5 d.Z.(.R.Q.6.C.Z.G.B.c.c.c.n.p.c.b.k.d.",
"H.J.A.J.A.J.C.A.A.C.C.A.L J.XXx Q.`.u.A.#XA.#XH.F.G.J.G.>XJ.S.v.F.Z.#XG.J.G.#XG.J.G.J.G.J.L ,X[.Q.x ] #XJ.C.C.C.F.F.A.L H.S.F.F.",
"Y.I.Y.I.Y.Y.Y.I.Y.Y.Y.Y.}.P.K.I 8 OXI.Y.Y.Y.I.Y.Y.Y.I.Y.I.I.P.Y.Y.Y.I.Y.I.Y.I.Y.I.Y.I.Y.I.I.I.<X8 I *XP.I.Y.Y.Y.Y.Y.Y.}.Y.P.Y.Y."
};
