/* XPM */
static char *b3deae5e22784de4efe118e851f55822Y2SDKW0ljQOqyyML[] = {
/* columns rows colors chars-per-pixel */
"64 64 231 2 ",
"   c #1E1F1F",
".  c #3F0707",
"X  c #3B0C0C",
"o  c #370E0E",
"O  c #2D1C0C",
"+  c #32180A",
"@  c #2B1919",
"#  c #321413",
"$  c #351919",
"%  c #3B1919",
"&  c #3B1313",
"*  c #1F231F",
"=  c #372B1D",
"-  c #3A2D1D",
";  c #302719",
":  c #3D301E",
">  c #21231F",
",  c #1C2323",
"<  c #1F2929",
"1  c #252625",
"2  c #2C2524",
"3  c #2B2924",
"4  c #252A2B",
"5  c #2C2C2C",
"6  c #262728",
"7  c #312424",
"8  c #382A25",
"9  c #372728",
"0  c #322B2B",
"q  c #382929",
"w  c #342A24",
"e  c #3E3225",
"r  c #34312D",
"t  c #38342E",
"y  c #2B2F30",
"u  c #362F30",
"i  c #2D3334",
"p  c #2F3638",
"a  c #333333",
"s  c #3C3333",
"d  c #3D3935",
"f  c #333739",
"g  c #353B3B",
"h  c #3B3C3C",
"j  c #440303",
"k  c #4B0201",
"l  c #430B0B",
"z  c #4B0C0C",
"x  c #530101",
"c  c #5C0101",
"v  c #520E0E",
"b  c #431C1C",
"n  c #431414",
"m  c #541D1D",
"M  c #640000",
"N  c #6C0000",
"B  c #680E0E",
"V  c #730000",
"C  c #7B0000",
"Z  c #760D0D",
"A  c #7A0D0D",
"S  c #651C1C",
"D  c #6C1918",
"F  c #7C1212",
"G  c #721D1D",
"H  c #7B1A1A",
"J  c #761414",
"K  c #7B100F",
"L  c #44331D",
"P  c #48361F",
"I  c #543C1C",
"U  c #593F1E",
"Y  c #69201F",
"T  c #472B2B",
"R  c #5C2C2C",
"E  c #473829",
"W  c #493927",
"Q  c #5A3F21",
"!  c #543E28",
"~  c #423536",
"^  c #433C3C",
"/  c #493C3C",
"(  c #463535",
")  c #563535",
"_  c #5D3434",
"`  c #5A3C3C",
"'  c #6C2323",
"]  c #642B2B",
"[  c #682B2B",
"{  c #732525",
"}  c #722B2B",
"|  c #7A2121",
" . c #643434",
".. c #6C3535",
"X. c #6C3B3B",
"o. c #633C3C",
"O. c #743D3D",
"+. c #7C3C3C",
"@. c #743535",
"#. c #5C401F",
"$. c #5D4121",
"%. c #59473C",
"&. c #46423F",
"*. c #654423",
"=. c #694724",
"-. c #6D4926",
";. c #6F4A28",
":. c #724B27",
">. c #744D29",
",. c #794F2A",
"<. c #7D512C",
"1. c #6D4B30",
"2. c #3D3F41",
"3. c #4A3F40",
"4. c #364040",
"5. c #3C4343",
"6. c #3F4848",
"7. c #434343",
"8. c #4B4443",
"9. c #4C4846",
"0. c #454B4B",
"q. c #4B4B4B",
"w. c #454748",
"e. c #534C4B",
"r. c #584747",
"t. c #53504E",
"y. c #5F5047",
"u. c #4D5353",
"i. c #535453",
"p. c #5B5553",
"a. c #5C5C5C",
"s. c #535959",
"d. c #49504F",
"f. c #624444",
"g. c #6B4444",
"h. c #614D46",
"j. c #754040",
"k. c #794F4F",
"l. c #69564A",
"z. c #785A49",
"x. c #645656",
"c. c #795050",
"v. c #796457",
"b. c #646464",
"n. c #6C6B6B",
"m. c #686767",
"M. c #737373",
"N. c #7B7B7B",
"B. c #757878",
"V. c #6F7272",
"C. c #830000",
"Z. c #8C0000",
"A. c #890D0D",
"S. c #930000",
"D. c #9B0000",
"F. c #990B0B",
"G. c #851616",
"H. c #941B1B",
"J. c #A40000",
"K. c #AE0000",
"L. c #AC0101",
"P. c #A10D0D",
"I. c #AF0C0C",
"U. c #B30101",
"Y. c #BB0303",
"T. c #B30D0D",
"R. c #BF0808",
"E. c #A41111",
"W. c #A81414",
"Q. c #B51111",
"!. c #B91212",
"~. c #8A2525",
"^. c #862727",
"/. c #952323",
"(. c #982A2A",
"). c #9A3434",
"_. c #873434",
"`. c #A33131",
"'. c #C30303",
"]. c #C70606",
"[. c #D60404",
"{. c #CB1111",
"}. c #EA0000",
"|. c #82542E",
" X c #865630",
".X c #885731",
"XX c #8C5A33",
"oX c #885A38",
"OX c #935D35",
"+X c #965F38",
"@X c #985F38",
"#X c #9C623A",
"$X c #9A6236",
"%X c #A2653C",
"&X c #AA6A3E",
"*X c #A5683B",
"=X c #B8773E",
"-X c #845D43",
";X c #9D5656",
":X c #8A644B",
">X c #876248",
",X c #966749",
"<X c #9B6D51",
"1X c #8E7059",
"2X c #AD6D41",
"3X c #A36E48",
"4X c #A86D47",
"5X c #B36E41",
"6X c #AA724C",
"7X c #A97048",
"8X c #B27245",
"9X c #BC7545",
"0X c #B4754E",
"qX c #B8774E",
"wX c #BC784C",
"eX c #A57653",
"rX c #BA7A52",
"tX c #CA7D4D",
"yX c #C27949",
"uX c #C07F53",
"iX c #B98555",
"pX c #D48D56",
"aX c #E49152",
"sX c #7F8282",
"dX c #838383",
"fX c #8B8C8C",
"gX c #929292",
"hX c #9B9C9C",
"jX c #8E9090",
"kX c #9EA1A1",
"lX c #A0A0A0",
/* pixels */
"M.i.)  .o._ _ o._ o.o._ _ ) 8.w.i.a.a.a.a.b.a.b.a.a.b.m.m.m.b.m.a.a.b.a.a.i.q.3.e.+._.+.+.+.+.+.@.@.@.[ ] R ' ....O.O. . . . .) ",
"M.q.H D.S.Z.S.Z.Z.S.Z.Z.Z.Z ( w.i.jXlXfXjXfXgXjXjXfXgXjXgXjXgXfXjXjXjXgXfXn.3.2.o.{.[.[.[.[.].[.[.'.[.Y.[.'.'.Y.Y.Y.Y.Y.U.Y.L.G.",
"M.u.G.S.V C Z.V N C.V C V c 7 7.s.gXhXV.N.M.N.n.sXM.N.B.dXN.N.M.sXn.dXfXM.i.2.2._ '.U.Y.U.U.U.U.J.S.L.S.U.Y.U.D.K.S.D.K.J.U.S.B ",
"n.i.H C M N M N V M M N c k 7 ^ s.sXfXV.m.M.n.a.M.B.b.m.N.M.a.n.M.b.M.n.i.w.p 6.f.].J.D.C C D.C.C Z.D.C S.J.S.Z.D.C.S.Z.C S.N z ",
"n.i.J V M N M M N N c N x + 3 7.i.dXN.1XN.n.n.b.M.n.n.b.V.a.a.m.V.a.m.b.i.3.p 3.o.U.Z.S.V Z.S.C S.C S.Z.D.S.S.C J.S.Z.Z.C.S.N l ",
"n.u.G V M M N M N M M N x + 3 7.i.sXfXV.M.m.m.n.M.a.b.a.M.m.a.n.n.b.a.V.s.h y 2.%.L.C.S.C.D.C.V S.V C J.S.C.S.Z.J.S.Z.Z.V D.N l ",
"M.i.D N M N M M N c M M k + 3 h q.N.fXn.V.x.n.b.n.b.m.a.m.m.s.m.V.a.m.m.s.3.y f ` L.D.S.N Z.S.C C.V C C.S.Z.Z.C S.C Z.S.C.S.M & ",
"n.i.S V c M k k c j k c x + 3 f q.n.V.a.s.d.a.s.p.b.a.3.i.a.i.a.i.w.a.i.q.h 5 g ` P.C N M V N M C c N N C M M M C M c C C.V N X ",
"n.i.m x k k + O O O O O O O 3 a w.a.i.9.w.9.9.9.9.q.9.w.9.h f s s a h f d a 5 g %.A M c c M c c c c M c x x x x c x x x x j k o ",
"n.u.3.q 2 7 0 5 5 5 4 3 > > 5 f q.q.h a f i i 4 6 6 4 5 a 5 1 1 1 1 5 y y y r w.9.~ 9 9 9 9 q q q q q w 7 @ 2 @ @ 2 7 0 0 5 5 0 ",
"m.p.3.d d s ^ 8.&.&.~ q q t s / &.8.7.7.8.9.9.&.d d ~ 9.9.8.&.d d &.8.8.8.&.9.t.8.w.e.t.t.u.p.a.a.s.t.q.w.&.g f 7.3.^ 8.3.3.8.8.",
"b.`.R.I.T.I.P.E.E.E.P.P.P.P.F.E.A.) u.e.iXpXpX0XqXqXqXrX6X6X6X4X4X6X6X3X3X3X3X3X,X3X6X6X3X6X6X6X0X6X7X7X4Xz.8.5.O.{.{.Q.!.T.!.T.",
"u.H.U.D.U.K.S.J.D.D.D.L.S.J.J.J.N T 0.p.pX=X8XtX&X9X$X#X9X%X%XyX5X5X#X@X#X&X$X&X*X&X%X8X$X8X#X&XwX9X&XyX#X! ^ 6.} }.'.J.U.K.U.J.",
"4 B D.Z.D.Z.C.Z.V Z.Z.C C D.D.C.k 7 5.e.iX5X.X%XOX#X$XXX#X|.OX.X,.XX@X.X@XOX$X|.#X#X.X.XOX#X$X|.$X*XXX&X-.e h 0.@.'.D.Z.D.C.Z.D.",
"  v S.J.S.Z.C Z.C.Z.Z.Z.V S.D.V k 7 h 9.qX%XXXOX$XXXOX<..X|..XOX|.,.%XOX.X<.XX|.$X#X;.<.$XOXXXXX|.4XOX|.*.: a 6.@.U.Z.D.J.Z.Z.D.",
"4 B D.Z.S.S.C C.Z.C S.D.V Z.C.N k 2 f 9.qXOX#X%XXX$X<.<.@X,.,.,X,.|.%XXX|..XOX|.$X.X-.XX|.#X<..X|.#XXXXX=.: 0 2...Y.D.S.D.Z.D.S.",
"dX_.S.C.S.C.C C.Z.V S.C.C D.S.V k 7 2.t.rX&X|.#XOX%X.X,.XX-.<.<.;.$X$X X:.XX#X>..X;. X#X>.OXOX<..X@X|.%X=.- 3 2...L.Z.D.Z.C D.C.",
"hX+.S.C V N V C Z.C Z.C N Z.Z.V k 7 5.p.6X5X,..X>.|.XX,.<.-.,.<.*. XXX<.<.<..X<.|.>.>.OX>.<..X*.|.OX|.XX=.= 1 5.X.J.S.Z.V M Z.Z.",
"fX .M M c k x c M M M M x M c k j 9 7.p.,X.X>.>.=.-.,.>.>.:.:.>.-.-.>.-.>.-.-.=.;.-.*.:.-.*.*.$.=.-.=.*.I ; 5 w.] D.V c c k c N ",
"jXr.# $ # $ % % # # # $ $ $ # @ # s 7.w.%.%.W E E E E E E W E ! ! W e e e = = 8 = = e e e = = = = e E 8 = 0 a w.%.R % % % # % % ",
"gXb.h h i 5 f 5.a a a a g p 5 5 y 2.6.6.9.^ h f i a u a y f 2.3.6.6.g 2.h p 4 5 y i g g h g i y i f 2.g 5.5.0.0.0.d.g i h 5.5.g ",
"fXm.V.dXM.m.M.N.M.M.V.n.V.m.m.b.b.m.V.B.M.n.n.m.m.m.b.m.b.q.u.e.} | G } { ' G S S { G { ' } ' S S Y ' ' ' { } ' ' ' S S ' { ' _ ",
"dXb.fXhXfXgXdXfXfXfXfXdXN.dXsXdXjXsXsXsXiXsXfXfXM.dXgXB.a.7.d.r.P.D.C.D.S.S.Z.Z.S.Z.S.Z.Z.V C C.C C C.C.C C C.C.C C C C.C V C v ",
"gXb.dXdXn.N.M.N.V.m.m.M.M.n.m.V.sXV.s.V.b.n.B.b.a.M.B.b.h u w.y.F.C.V C.N C N V V V V V C c M V M N N V M V C V N V N V N M c o ",
"fXa.B.sXm.B.n.n.b.b.a.V.M.n.n.m.B.b.s.V.b.m.n.a.a.n.m.m.h 0 q.x.A.Z.V V M V M N N C N M V M V N M V N N V V V V N C V N V c c X ",
"1Xb.V.V.n.N.a.b.p.a.a.n.m.b.m.M.V.a.a.n.m.a.M.n.t.b.n.i.h a u.x.A.C N V V V c V N V V N V M V V M V M M C V V V N C N V N c x o ",
"B.a.B.N.a.V.s.a.b.a.b.M.b.a.a.M.m.a.s.m.V.i.V.b.s.n.a.a.g y q.p.A.C V N V V M V V N V c N c N N M N M N M V N V N V c N N N c X ",
"B.a.B.B.u.b.p.i.a.m.i.b.a.m.a.b.b.i.b.n.b.i.b.a.a.m.b.m.3.5 7.y.F.Z.N V N V N V N N N M N c M c M M M N c N c V V N c x N N x X ",
"B.a.M.fXa.d.s.i.t.d.q.u.i.a.i.a.s.i.i.i.e.q.d.a.i.a.i.w.h 5 f r.A.V M N M M x M M M M M N M M x M k M M x M c x M c c x N M x X ",
"M.i.a.b.w.3.2.3.3.3.2.2.2.3.2.7.2.3.2.s s 2.h 3.h h h s a 0 ^ e.S z z z z z z z z l l l l l z z n z l l . X l l X l l X z z l $ ",
"m.p.d.w.2.2.p p i p y y y a a g 2.2.y p p g 2.f i y 5 y y i 5.q.7.a a f p f a p y 3 1 6 6 4 g 5.5.g i 4 1 4 i i f p p g i f f f ",
"2.3.O.O.X.X. ._ R _ R R ~ 7.i.v.1Xv.x.v.c.l.l.h.h.%.%.h.%.%.h.l.l.l.l.l.h.l.l.l.y.7.7.8.R [ ..O.O.@. .] ] .... .X.X.] X. . .X. .",
", A Y.U.U.U.U.R.U.Y.U.S.) 5.9.rXpX9XtXyXtXtXwX8X2X8X8X4X8X2X4X8X8X4X8X8X2X8X8X8XoX9.u.g.].[.'.'.Y.'.'.Y.'.R.U.K.K.L.K.U.K.K.U.I.",
", Z K.J.K.J.U.U.K.Y.J.c 9 w.7.0X5X.X@X.X4X*X.X#XOX%X%X.X@X.X|.*X#X,.%X#X.X#XXXOXW d 0.g.'.D.C.D.C.J.Z.C D.Z.Z.Z.S.C.D.Z.S.Z.S.C ",
"h J S.C.D.D.D.Z.S.D.C k @ 5.e.0XXX+X@X.X@X+X+X@X<.#XOX.X,.|.|.@XXX|.OX<.XX#X XOXL d u.g.].D.N S.C D.C.C D.S.S.C.Z.C.Z.C.S.C.S.C.",
"M.| C.Z.D.Z.S.Z.Z.D.C k 7 7.8.6X+XXX*X+X@X@X X+X X$XOXOX>.+X-..XXX@X.X|.OX#X+XXXW h s.c.].S.Z.S.C.D.Z.D.S.D.S.Z.S.C.S.S.D.Z.Z.Z.",
"B.^.S.C.D.D.D.D.C.Z.C k 9 w.e.rX*X,.@XXX#XOX-.XX.XXX.X|.|.@X>.OXXX,..X+X<.XX#X.XL d u.c.R.Z.D.D.C.Z.C J.S.C.Z.S.Z.S.Z.D.S.C.C C ",
"M.^.S.C S.Z.S.Z.Z.D.C k 9 w.q.0XOXOX+X-.OX#X,..XXX#XXX$X|.|.*.,.XX,.@X+X.X#XOXOXW s d.g.R.D.C.J.S.C.D.Z.Z.C.S.Z.Z.C.S.S.D.C.S.S.",
"M.{ V C S.C V C.C V N k 9 7.q.oX|.@X#X-.OXOX<.OX XOX<.OX:.,.:.OX.X>.XX|.OX+X>.,.L a w.g.Y.S.N S.C.S.D.Z.S.Z.S.Z.Z.C C.C Z.C.D.S.",
"V.T j k x k k x x k j j 7 7.e.-X>.=.-.=.=.-.*.1.=.*.$.$.Q Q Q Q Q U Q Q *.*.Q P - r w.` A.N M M M N M B N M M M M M B c c c M x ",
"n.^ 2 0 2 9 2 2 5 7 7 2 5 7.u.e.~ 2 2 w 3 r t d ^ d r 3 3 3 3 3 q r r r 0 r r 5 r h 0.8./ 9 9 9 q ~ ~ / s 9 7 @ @ 7 9 9 9 9 2 0 ",
"M.i.7.9.3.h h s ^ 7.h s s d 8.8.d q u h ^ ^ ^ 8.9.e.8.^ a q s 8.8.7.w.8.~ / d / d / r.e.e.8.^ 8.8.e.p.p.e.8.7.^ ^ 9.8.9.8.8.^ 7.",
"n.u.G A.B A.A.A.A.A.A A Z Z A A A A Z K K F F K F F K F A Z A F D ~ d.` !.{.Q.Q.T.T.Q.Q.Q.Q.E.E.E.E.W.W.E.P.E.E.P.E.E.E.E.E.F.| ",
"n.s.G.C.M V C.N C Z.V C C.V C V V C N C V C C C N C N C C V V V x s 0.f.[.'.J.S.J.S.D.Z.J.D.D.C.J.S.C.D.S.S.L.S.D.J.S.D.Z.J.S.v ",
"m.s.H C x N V c N V V N V M M c N C c N c M C N c V M V N N M V j 0 w.f.R.D.S.N C N V M C N Z.C S.V C.C Z.V C.C S.C.C.S.C.V V o ",
"m.i.H C x N N M N M V M V V M N V N N V N c N V c V c N M V N N j 0 5.` Y.S.S.N N C.Z.V V Z.C V S.C.C Z.C C.Z.C.D.Z.Z.C.C C C X ",
"m.q.J C c V V c N N N V C N N M N V N V c M N M N V M V V V N c j 7 f ` ].D.C Z.C C S.V C.C.C.V C.V V C.Z.C S.Z.S.Z.C.C Z.S.C.X ",
"i.u.H C x M C M N N N N V M V M N N c V x N N N N V M V N V N N j 1 g r.R.J.N C S.N C N S.V S.V C N C.V C.C.S.C Z.S.C S.C.V N X ",
"5 h H C x M N M N N V N V N V V V V c N M x c V M N N V M N N V j > g f.T.Z.C.N C.V C.M C.Z.C N Z.V C.C Z.C.S.C S.Z.Z.Z.C.V V o ",
"  f G N k c c M c M N M c c c c M c x c x x k c x c c c c c c c j 2 5.h.J.V C N N N C N V C M M N M M c M M N M N M M c M M c X ",
"1 h ) b $ % b % % % % % $ % % 8 % # # # # $ % % # # # # $ $ # # $ 0 w.8.] b b b b n % & & & % b T % % # $ $ $ @ # # # $ $ $ $ $ ",
"M.s.5.5.g 4.5.5.5.g 4.g 6.d.s.0.4.4.i f f 7.g p y 4 4 y g 2.p i y 2.7.7.5.5.g g g g g p i f 5.w.w.w.g g 4.4.g i < , , y g 4.4.6.",
"kX;XH./.H./.~.~.~.~.~.~.~.).).~.~.~.| r.u.t.<XeX:X,X,X,X<X<X<X<X-X>X:X:Xz.:X:X:X:X:X:X:X:X:X:Xz.e.w.f.(././.H.H.G.Z J H G.^.~.~.",
"fX).Y.L.U.'.J.J.D.J.L.Y.L.K.D.L.L.U.C.T 0.e.pXaXyXtXtX5X9X&X9X9X8X#X2X%X2X$X=X#X2X%X&X#X5X$XOX1.&.5.j.[.Y.L.Y.U.J.K.J.L.J.J.J.L.",
"fX_.Z.V Z.S.C.C C Z.C D.C.C N C.C C.x 2 5.e.qX&X#X+X@X>.<.*..XOXOXXXXX>.>.$.<.<.XX>..X-.OX<.:.: d 0.j.Y.Z.V C Z.V Z.V S.Z.Z.Z.C.",
"fX).Z.Z C.S.Z.C.C C C Z.N C C.V C C k 7 7.9.wX#XOX|.@X<.>.>.XX XXXXXXX*.#.>.>.OX<.<.;.<..X,.|.L a 0.j.K.C S.V Z.S.D.C C.Z.V C.V ",
"gX).Z.M V Z.N Z.C C S.Z.M C.C.N S.C k 7 5.8.qX&X>.>.#X<..X|.$X|.OX>.+X$.$.XX<.#X<..X>.<.<.<.=.: a 0.O.R.Z.C N Z.D.Z.C.C.C.C M C ",
"jX+.Z.C C.C V C.C S.C.S.C N V C Z.C j 7 7.8.wX#X>..XXX.XOX;.XX|..X:.<.#.I >.|..X<.OX<.$.<..X*.- r 0.O.Y.Z.V C D.C.C C.C.C C.C C ",
"sX .Z.Z.Z.V Z.Z.C S.C C.C V C D.C.C.x 2 7.9.qX>.$X#X XXX X|.|.*.<.$.I I :.>.|.XX<.<.<.=. X:.=.: r 5.X.U.C S.C.C C S.C.C M M Z.C.",
"N.} S.C.C.V C S.V C C C.N Z.C C.C C.x 7 5.t.qXXX X<.#X<.XX<.<.=.OX*.I *.OXOX>.#XXX,.OX>.XX:.<.: 4 2...U.V C N V V S.C.S.V N C Z.",
"M.} C M V V c N N M N C.M V N M V N k 7 7.t.4XOXQ *.<.-.|.*.-.:. X=.U *.-..X-.<..X:.>.:.>.=.=.: 5 5.X.J.c x M C N C V C C C N C.",
"N.) . l l l l l l l l l l l l l l X o 2 7.e.z.! w : - - P W P P P P P W P P P L L L L L P L = ; 6 w.r.J X X l l l l l . X j X l ",
"M.w.u a a a 0 5 a a a a a a s i a a a f w.i.q.7.h g f a a a a a s a a r r a a y 2 4 4 3 3 5 5 2 6 h 9.7.a a a a a 5 6 2 6 4 0 a ",
"n.q.9.7.q.w.h h w.9.q.q.9.t.i.7.w.q.9.9.e.i.i.i.i.q.9.9.u.q.9.q.t.q.w.5.9.q.0.8.h h 7.h 2.7.w.7.^ q.t.q.7.7.i.q.9.q.q.7.h 7.9.9."
};
