/* XPM */
static char *a7f61e52a315481c9707f45f7b5e7190qSD5KhPNGmWD3SF0[] = {
/* columns rows colors chars-per-pixel */
"64 64 121 2 ",
"   c #70695F",
".  c #746C63",
"X  c #786E66",
"o  c #777066",
"O  c #76726B",
"+  c #7C756D",
"@  c #7F786F",
"#  c #7B7770",
"$  c #7E7972",
"%  c #857366",
"&  c #83766C",
"*  c #89776B",
"=  c #81796F",
"-  c #8B796D",
";  c #957E6E",
":  c #837C74",
">  c #8A7E74",
",  c #847F78",
"<  c #8A7F78",
"1  c #917E73",
"2  c #97806F",
"3  c #868077",
"4  c #8C8176",
"5  c #86827A",
"6  c #8B847C",
"7  c #8E887E",
"8  c #938274",
"9  c #9B8474",
"0  c #9E8876",
"q  c #92857D",
"w  c #9B857B",
"e  c #92897F",
"r  c #9A8A7D",
"t  c #A18674",
"y  c #A38976",
"u  c #A28779",
"i  c #A48C7A",
"p  c #AB8D7E",
"a  c #AB917E",
"s  c #8D8780",
"d  c #8E8983",
"f  c #948780",
"g  c #9C8780",
"h  c #948B82",
"j  c #9A8D83",
"k  c #928E89",
"l  c #9A8F89",
"z  c #979087",
"x  c #9C9186",
"c  c #95928C",
"v  c #9B938B",
"b  c #99948B",
"n  c #9B948B",
"m  c #9C948A",
"M  c #9C958B",
"N  c #9D958B",
"B  c #98938C",
"V  c #9A938C",
"C  c #98948C",
"Z  c #98948D",
"A  c #99958D",
"S  c #99958E",
"D  c #9B948F",
"F  c #9C948C",
"G  c #9C958C",
"H  c #9F978D",
"J  c #9D988F",
"K  c #9F988F",
"L  c #979490",
"P  c #989591",
"I  c #9A9791",
"U  c #9B9792",
"Y  c #9C9590",
"T  c #9D9690",
"R  c #9D9991",
"E  c #9C9993",
"W  c #9E9893",
"Q  c #9D9994",
"!  c #9F9A95",
"~  c #A08781",
"^  c #A48C85",
"/  c #A88F81",
"(  c #AE8F80",
")  c #A78F88",
"_  c #A88F89",
"`  c #A49081",
"'  c #A79185",
"]  c #A99082",
"[  c #AB9183",
"{  c #AD9081",
"}  c #AF9080",
"|  c #AE9483",
" . c #A89386",
".. c #A89387",
"X. c #A99487",
"o. c #AB9486",
"O. c #AC9487",
"+. c #AF9887",
"@. c #A2948C",
"#. c #A8908A",
"$. c #A89488",
"%. c #AC978A",
"&. c #A0988F",
"*. c #A6998D",
"=. c #A99B8F",
"-. c #B09282",
";. c #B09786",
":. c #B09887",
">. c #B19988",
",. c #A39691",
"<. c #A09993",
"1. c #A09994",
"2. c #A09B95",
"3. c #A59A94",
"4. c #AB9D91",
"5. c #A49F98",
"6. c #AEA195",
"7. c #A6A19A",
"8. c #A8A39C",
"9. c #B0A397",
"0. c #B1A498",
/* pixels */
"k R S S S b S V S b S T G R S V z b S V c S v c S b S c b z k G 2.Q T T T T ,.Q W T W W T 2.Q G W T P T P T W T U P c V L k h V ",
"h K G G G G N G G v G G G G N S G N N N N b N N N b b N N k k <.T R 2.G l P T T T T T W T Q T V T T T T T T W Q 2.P Y V T k s c ",
"h G G N N G N G G N v N N G N S N N N N v x b N v v N N b 7 h T T T T P S T T T T T T W T T T V 2.T T T T W 1.T T T T T R d 5 c ",
"h G N v N G G G G G N v N N N @.&.@.G v z N N b N b N G b 7 h T R W T W T P T T W W T W W Q T V T Q Q T 1.T W W 2.2.T T R d 5 z ",
"h G G G N G K K G G G G N v N G G G G N N N z N G @.G G v q h P W 2.W T P T T T T T T T T Q T T T T W T 1.T T 1.T T P T T c d S ",
"h G G G N @.@.G G G @.G v b @.G N N N G N x N N N G N v N 7 d S T T W T T T T R T ,.Q T P T T P T T T 1.2.W 1.1.T T T T R T d v ",
"h K G K G G &.G G @.G G G G G N N b N N N b N N b v N b z h d T 1.T T T T T T Q T 2.T T T T T T W T 2.2.2.1.W 2.T T T T T S k b ",
"h G G G G G N N b N N N G G G N N N N N x b z N N v N N N h d R 1.2.2.T T 2.Q T 1.1.2.2.T T T T Q 2.2.T T T W T T R S T R V 7 b ",
"h @.S N S N G G G G v N N G @.&.b N b N v b b S N b K c c d d L 1.1.2.W T P R R <.2.<.<.R T Q Q Q R Q E T T T T T T P R T k 6 V ",
"7 b b v l l v b b b b b z h h z z c z N z z z v 7 3 $ $ # # O $ : , < s k d k k k h k k d 5 , 6 < , , 3 , , , , : $ , $ $ $ $ h ",
"> 7 q h 7 7 7 q q 7 q e 7 $ # 5 d s s d 7 6 6 5 5 5 5 , , d d 5 s s s k c c k k k c h c d 5 6 h d d 6 6 6 s d d s 5 s 5 6 d 7 6 ",
"w ] ] ] / p / / / / ] ] / e 5 k c c c c c c c c S S L c c c L L L L P P c P k L c c P S V d x | $.$.o.#.' #.%.%.) ] ' ' ' ' } $.",
"u } ( ( p p p p p p p p p w 5 d L c c c c L k c c c k k d c c c L c c L c L c k c c c c k $ w a p p ] } ( ( | | ( ( p p } p a -.",
"y p } ( ( p ( p p p p p i q 5 k L c c c k k c k c k k k c c c c L c c L c L L k P c c c k 5 3 p a } ] } | -.| ( ( ( -.p ( / p ( ",
"u } } / ( p p p p p p p p q 5 k L c k k k c k c k k c k c c c c c c L c c L c L P L S L k 5 6 p p ( } } } | ] } ( ( -.p p p } ( ",
"u } ] ( ( } } } p p p y p 6 $ k L L k c c k c L c c k c c c L c L c L c L c k L L L L c k 5 q p p ] } ] ] } } ' } ( | p p p ] p ",
"u ] ( ( / ( } } a a a p p ; , k c c k L k c k c c c k k c c L L L k L k c c c c k L L k k 5 6 p p p p } } | | } } ] } p p p ] } ",
"u } / ( ] } ] } a p p p p 9 5 k c c k c c k k k c c c k c c c L k L c L P c c S L L L L k 5 8 p } p ] | ] | ] | } } -.( p } ] } ",
"u ] } } } p p -.p p p y p w q k k k P k c k k L c c c c c L L L L c L c P L P S L L c P k 3 8 p ] } p -.} | | ] ] ( ( / p } } } ",
"u } } | | ] } } p p p y y 1 5 c c c k S c k L L c d d d d d d d k k k d d d k d d d k k d 3 4 i p p p } } } } } ( } | p p } } ] ",
"& - - - - 8 w w 0 r 8 % % + O + $ $ $ $ $ s d s 6 $ @ # O o o O # + # # $ + + $ $ + + $ 3 5 3 8 w w 0 0 w w 0 w r y 2 - * - * * ",
"3 6 6 5 7 r j j r r 3 3 3 d 7 e s 5 s 5 s h e h r r z r 7 7 e e h v z v x b K <.E S z z r @.x x j ` x x x ' x x ' z h 5 6 5 3 6 ",
"w x i ` a a i ] i i 0 0 r a a r x r i i i i u i i i y t 9 6 e | +.+.| | | +.+.+.+.:.:.| a a +.| | +.+.+.>.>.>.>.+.+.:.o.=.N h ' ",
"2 y y y i i i y y t t y y 0 i y y y y y y y i i y y y y 9 3 4 | | | | | +.| :.+.| :.a a a a a +.| +.| | +.+.+.| +.o.| | | e 3 y ",
"2 y y y y y i y y y t y y y i y y y y y y y y y i y y i 0 3 3 :.a +.:.:.:.:.:.>.+.:.| a a a a +.+.;.;.+.+.a | +.+.| a +.+.r 8 i ",
"2 y y y y y i y i i t t i y y y y y u y i y y y y y y y y 3 8 -.a | :.:.:.>.>.>.:.+.+.a a a a | | | +.| +.+.+.o.+.| o.o.+.r r i ",
"2 y y y y y y y y i y y i y i y y y t y y i y i y y t t 9 3 5 | +.+.| :.;.:.>.:.+.+.| | | a a | ;.;.;.+.+.+.+.| +.| | a +.r 9 0 ",
"; i y y y y y y y y y i i i y y y y y y i y i i y y y y 9 3 e | | | >.:.;.:.:.;.| +.+.| ;.| +.;.+.;.;.| +.a +.| | | | | +.r r i ",
"; i i i y y y y i i y y i i y y y y y i y i i i i y y y 9 4 e } | | +.+.;.;.+.a +.+.+.+.| a | +.| +.| | +.| +.+.+.a o.+.+.r 8 i ",
"2 i i y t 0 0 y y i i y i i y t y y i y y i i i y y t y 8 - 4 o.| | +.+.;.;.;.;.+.>.+.| +.+.| | +.;.;.+.+.+.| | a +.+.+.a 3 4 i ",
"; i i y 9 0 9 0 y i y y i y y 0 y y y i i i i 0 t 9 2 2 - @ = 0 0 i i i ` i a i i i a i i a a i i i i i i ` i i i i i i 4 = 4 0 ",
"- 2 2 8 2 2 2 2 2 2 2 * * 2 2 2 2 8 8 8 8 8 - * % o + + @ 5 3 @ O @ @ @ : = : @ @ : @ O O @ 3 > @ + @ @ = $ $ @ @ @ @ @ = 3 3 2 ",
"6 e d e h e e e h h h , $ s h h l l l l l l l Y V T l l T T ,.T b K G T T <.T T 2.T T h s s h k z z h k b b b c z z z c z c z d ",
"7 h h x h h h z h h h s s l ,.,.3.,.,.,.3.3.,.3.,.,.,.3.,.,.,.,.<.3.3.3.3.3.3.3.3.3.,.k 6 d h z h e 7 z e z h z h h h h h z z z ",
"6 h e h h e e e h h h 5 < k ,.,.,.,.,.3.3.3.,.,.,.1.,.3.3.,.,.3.3.,.,.3.3.5.5.4.3.,.,.s , q h h z e e e e 8 e e h h 7 e e j h h ",
"6 h e e z h h e e q s s < l ,.,.,.,.3.,.3.,.,.,.,.,.,.,.3.3.,.,.*.3.,.3.6.3.5.4.3.,.,.f $ 5 h j e e x e e r e z h h e e e h e e ",
"3 r h h e e z e h e h 5 , l ,.,.,.,.,.,.,.,.,.,.@.@.,.,.3.3.,.3.3.3.,.,.3.3.3.3.3.,.3.f , 7 h e e x h e e z e h h e e e e e h e ",
"6 e e e h h j e e e e 3 6 l ,.G ,.,.,.,.,.,.,.,.,.,.,.,.3.,.,.,.,.,.,.,.,.3.3.3.3.3.,.f 3 e e e e r z m z e z h e e 7 e e e h e ",
"4 e e h h e h g e e e 5 , l ,.l @.,.,.$.D ,.,.,.,.@.,.,.,.3.,.,.#.,.3.3.3.#.3.6.3.4.2.7 3 5 q q e e z r e z e e e e h h h e e e ",
"4 e e e e e h e h h e 5 , l ,.@.@.,.1.W ,.,.,.,.,.,.,.,.,.3.,.@.) ,.#.3.3.3.3.3.3.3.3.k 5 e h q e e e e h e e h e h r e z h h e ",
"6 e e e e e e h h h h : 5 v ,.,.,.,.,.,.,.,.,.,.,.,.,.,.,.,.,.,.S ,.,.,.2.3.3.3.3.3.3.f < 6 f f h h h h h h h f e h h h v h h e ",
"4 e e 3 q e e e q d 5 : , f v D l l l Y ,.l Y ) l V ,.D _ D G j l l l l ) ,.,.,.,.,.D s , O O $ : = = $ + + $ $ O @ + 3 e e q 6 ",
"+ 5 5 5 6 6 6 e s s 6 s h 6 s d s f d f d d f d s d d d d k d : $ < q q d s s d f s s k l s 5 < 6 6 6 5 6 5 s < 5 5 : 5 5 6 3 : ",
"h 7.7.7.7.7.<.7.5.5.5.5.5.Q Q 2.2.2.2.2.5.5.5.5.7.7.7.7.5.8.2.6 < f f f f f f g f k g l l k f l l k l h l k h f h v h h h h e d ",
"k 7.7.7.8.7.7.7.8.5.5.5.5.7.8.7.7.8.7.7.5.8.7.7.7.7.7.8.8.8.Q 6 5 q q q q q f f f s f f f q < q q f f f w f f q f < f g q q q < ",
"k 7.5.7.7.7.7.7.5.5.5.5.7.8.7.5.5.5.8.7.7.8.7.8.8.8.8.8.8.8.2.5 , q q f < q q f f f f f f q q f f f f q f f f f f q f f h q f < ",
"k 2.7.8.8.7.7.5.5.5.5.7.5.7.5.7.7.7.7.7.7.8.8.7.8.8.8.8.8.7.U 5 , q q f q q f f f f f f f q q g f q f q f f f f < f f f f f f < ",
"k 7.7.8.8.8.7.5.5.7.7.5.5.7.8.5.5.5.5.5.7.7.8.7.7.7.7.8.7.7.R 5 , q q f q q f f f f f f q < f q q f f f f f f f f f < f f f f < ",
"h 7.7.7.8.8.7.! 7.7.7.7.7.7.7.7.5.8.5.5.5.5.5.8.5.8.8.5.7.7.Q 5 : f q f f f f f f f f f f q f f f f f f f q f q f q q q f f q < ",
"d 2.7.7.7.7.3.7.2.7.2.7.2.7.7.7.5.5.5.5.5.5.3.5.8.5.5.5.7.7.Q s , q q q q f g h f f f f h f g f f f f q h q f f f f q q f q f q ",
"d 7.2.7.7.7.7.! 7.<.7.Q 2.7.7.7.5.5.5.5.5.5.5.5.5.8.5.5.7.7.W s < f q f f f f f f j g h f h g h f f f f g h h q f f q q f g f < ",
"6 7.7.7.7.7.7.3.5.7.7.7.7.7.2.7.5.5.5.3.5.8.5.5.5.8.8.8.7.7.P < , f f f f f f f < s < q < 6 < 6 < < > < < < < < q f f q < < < : ",
"+ d b k k b b v z z v S z d d k s 5 6 s 5 < s l T l L l c k s s , : : < 6 < 6 < = # + # # O + $ $ + + O $ + O X $ > 5 > < > & + ",
"7 z z z h l z z z z z z z 5 5 e f < s s s < q ~ h j j k j j h V l h f l h l h l ,.V ,.l S V V R P ,.R R T G N S b G v z l l h l ",
"x =.4.=.=.=.6.=.4.4.4.4.4.z q ~ ^ l _ _ ,.l _ ^ _ ) ) ) ) ^ ^ ) #.#.#.#.#.#._ _ _ ,.^ _ #.l v 6.9.0.6.4.6.4.4.4.4.0.4.6.4.4.4.4.",
"j 4.=.4.4.4.=.=.4.=.4.4.=.e > ~ ~ ~ ^ ~ _ _ ~ _ ) ^ ^ ^ ^ ^ ^ ) _ _ #.#._ _ _ _ _ #.#._ $.g v 9.0.6.6.6.6.4.4.4.4.4.4.4.6.*.4.4.",
"x =.=.=.4.6.4.=.=.=.4.4.=.e : w ~ ^ ^ ~ _ ^ ^ ^ _ ^ ^ _ ^ ^ ^ _ #.) #.) ) ^ ) ) _ _ #.#._ h v 0.6.6.4.6.6.=.6.4.9.4.4.4.4.4.4.=.",
"j =.4.6.4.4.=.=.=.4.6.=.=.e , g ^ _ ^ ^ ^ ^ _ ~ ^ ^ ^ ^ ^ ^ ^ ^ ) _ #.) ^ ) ^ ^ _ _ _ #._ h v 0.0.6.6.6.6.6.6.4.4.4.4.4.4.4.=.4.",
"x =.=.4.=.4.=.=.4.4.6.4.4.7 > g _ _ ~ _ ~ ^ ~ ^ ^ ^ ^ ^ ^ ^ ^ ^ ) ) _ ) ^ ^ ) ) ) ) _ _ _ j l 6.6.6.6.6.6.=.4.=.=.4.=.4.4.4.4.4.",
"` 4.=.4.4.4.6.6.4.4.4.4.4.7 , g _ _ ~ ~ ~ ^ ^ _ ^ ^ ^ ^ ^ ^ ^ _ #.#.) ^ ^ ) ) ) ) ) ) ) _ j v 6.0.6.6.6.6.4.=.=.=.=.4.4.9.6.=.4.",
"l =.4.=.=.=.6.=.4.=.4.4.4.e , w ^ ^ ^ ~ ~ ~ ^ ~ ~ ^ ^ _ _ _ ^ _ _ _ ) ^ ^ ^ ) ) ) ^ ) ) o.r z 6.6.6.6.=.4.4.4.4.=.=.=.6.=.>.4.4.",
"x =.4.9.6.=.=.=.=.4.=.4.=.e $ g ^ ^ ^ ^ _ ^ _ ~ ^ ^ ^ ^ _ _ _ _ _ _ _ ) ) ) _ _ $.^ ^ ) o.z r 4.0.6.=.6.6.6.6.6.6.6.6.=.=.6.4.=.",
"8 x @.@.N @.x N x ] N z g > , q ^ ~ g g ~ w g g ~ 1 ~ g 1 ~ g ~ ^ g ~ ~ ^ ~ l ) ^ ^ j ^ j 6 4 @.=.=.*.*.] K @.@.` N @.x x x x x ",
"  o o o . X o o . .   o o O $ & 1 *         . . . . . . . . . + + X + > > : < > > : > > > > 3 3 4 4 3 3 + o o o o o X X X     . "
};
